<?xml version="1.0" encoding="UTF-8" standalone="no"?>
<!-- Created with Inkscape (http://www.inkscape.org/) -->

<svg
   version="1.1"
   id="svg2"
   width="261.15271"
   height="83.921104"
   viewBox="0 0 261.15271 83.921103"
   xmlns="http://www.w3.org/2000/svg">
  <defs
     id="defs190">
    <clipPath
       id="clipPath1710">
      <rect
         style="opacity:1;fill:#ff0000;stroke-width:0.718507"
         id="rect1712"
         width="1090.6233"
         height="350.47049"
         x="460.19666"
         y="-1173.6133"
         transform="scale(1,-1)" />
    </clipPath>
  </defs>
  <g
     id="g8"
     transform="matrix(0.2394527,0,0,-0.2394527,-110.19533,281.02487)"
     clip-path="url(#clipPath1710)">
    <g
       id="g10"
       transform="scale(0.1)">
      <path
         d="M 20000,0 H 0 V 20000 H 20000 V 0"
         style="fill:none;fill-opacity:1;fill-rule:nonzero;stroke:none"
         id="path12" />
      <path
         d="m 6644.38,11734.8 v -623.2 H 6379.49 V 9101.2 c -145.46,-133.6 -337.03,-214 -547.53,-214 h -434.01 v 545.2 h 434.01 c 147.83,0 268.44,119.4 268.44,267.2 v 163.2 H 4603.27 v 1872 h 2041.11"
         style="fill:#2653a1;fill-opacity:1;fill-rule:nonzero;stroke:none"
         id="path14" />
      <path
         d="m 5613.77,10722.1 c -134.09,141.7 -234.34,290.1 -294.82,389.8 h 589.36 c -60.36,-99.6 -160.45,-248.1 -294.54,-389.8 z m 657.63,389.8 v 167.2 h -588.63 v 175.3 H 5522.3 v -175.3 h -588.62 v -167.2 h 201.28 c 50.66,-93.1 174.82,-302.2 363.79,-501.1 -134.39,-118.6 -294.12,-220.2 -475.35,-266 l 39.02,-154.1 c 213.94,54.2 398.57,172.7 551.12,308.8 152.57,-136.1 337.2,-254.6 551.14,-308.8 l 39.02,154.1 c -180.99,45.8 -340.7,147.5 -475.16,266.2 188.86,198.8 312.95,407.9 363.59,500.9 h 179.27"
         style="fill:#ffffff;fill-opacity:1;fill-rule:nonzero;stroke:none"
         id="path16" />
      <path
         d="m 6644.38,11111.6 v -1412 c 0,-236.5 -102.88,-450.5 -264.89,-598.4 v 2010.4 h 264.89"
         style="fill:#5fb8ea;fill-opacity:1;fill-rule:nonzero;stroke:none"
         id="path18" />
      <path
         d="m 6923.48,9239.6 v -162 c 0,-147.8 120.62,-268.4 268.44,-268.4 h 434 v -544 h -434 c -448.2,0 -812.43,364.2 -812.43,812.4 v 23.6 c 162.01,147.9 264.89,361.9 264.89,598.4 v 1412 h 1776.23 v -1872 H 6923.48"
         style="fill:#2653a1;fill-opacity:1;fill-rule:nonzero;stroke:none"
         id="path20" />
      <path
         d="m 9771.39,10407.3 c -93.72,86.5 -194.65,110.5 -312.39,110.5 -151.38,2.4 -252.31,-48 -252.31,-141.7 2.4,-98.5 105.73,-137 257.11,-151.4 218.68,-19.3 504.64,-67.3 502.23,-372.5 -2.41,-221.1 -197.05,-374.9 -504.62,-374.9 -192.25,0 -384.48,43.3 -540.68,218.7 l 129.77,175.4 c 110.54,-122.5 276.34,-173 415.71,-175.4 117.75,0 249.91,43.3 252.31,153.8 2.41,105.7 -98.51,146.6 -273.94,163.4 -223.48,21.6 -480.59,93.7 -483,355.7 0,261.9 271.55,360.4 492.62,360.4 182.62,0 324.39,-40.9 456.56,-158.6 l -139.37,-163.4"
         style="fill:#2653a1;fill-opacity:1;fill-rule:nonzero;stroke:none"
         id="path22" />
      <path
         d="M 10566.8,11193.1 V 9513.4 h -247.5 v 1679.7 h 247.5"
         style="fill:#2653a1;fill-opacity:1;fill-rule:nonzero;stroke:none"
         id="path24" />
      <path
         d="m 11184.3,10106.9 c 0,-245.1 173,-394.1 384.5,-394.1 511.8,0 511.8,785.8 0,785.8 -211.5,0 -384.5,-149 -384.5,-391.7 z m 776.2,591.2 h 240.3 c 0,-394.1 0,-790.6 0,-1184.7 h -235.5 l -12,192.2 c -79.3,-151.4 -261.9,-223.4 -408.5,-223.4 -346,-2.4 -608,221 -608,624.7 0,396.5 271.6,617.6 612.8,617.6 168.2,0 329.2,-79.3 403.7,-213.9 l 7.2,187.5"
         style="fill:#2653a1;fill-opacity:1;fill-rule:nonzero;stroke:none"
         id="path26" />
      <path
         d="m 13532,9513.4 v 634.4 c 0,204.2 -115.3,341.2 -319.6,341.2 -197,0 -331.6,-161 -331.6,-355.6 v -620 h -247.5 v 1187.1 h 225.9 l 14.4,-173.1 c 113,127.4 245.1,189.9 398.9,189.9 288.4,0 509.4,-204.3 509.4,-567.1 V 9513.4 H 13532"
         style="fill:#2653a1;fill-opacity:1;fill-rule:nonzero;stroke:none"
         id="path28" />
      <path
         d="m 14373.1,10138.2 c 0,-235.5 177.8,-362.9 391.6,-362.9 218.7,0 384.5,149 384.5,362.9 0,233.1 -180.2,365.2 -384.5,365.2 -201.8,0 -391.6,-117.7 -391.6,-365.2 z m 841,672.8 180.2,-139.4 -141.8,-165.8 c 98.6,-115.3 144.2,-221 144.2,-367.6 0,-209.1 -103.3,-379.7 -314.8,-461.4 242.7,-81.7 312.4,-245.1 312.4,-386.9 0,-322 -317.2,-483 -634.3,-483 -386.9,0 -634.4,197.1 -624.8,526.3 h 247.5 c -7.2,-185.1 180.2,-283.6 377.3,-286 182.6,0 377.2,74.5 377.2,242.7 0,165.8 -151.4,257.1 -372.5,257.1 -384.4,0 -641.6,221.1 -641.6,591.2 0,396.5 319.6,595.9 641.6,595.9 98.6,0 235.5,-24 319.6,-81.7 l 129.8,158.6"
         style="fill:#2653a1;fill-opacity:1;fill-rule:nonzero;stroke:none"
         id="path30" />
      <path
         d="m 7661.02,10074.5 -134.6,395.6 c -30.6,89.8 -50.99,171.3 -71.39,250.9 h -4.07 c -20.4,-81.6 -42.83,-165.2 -69.35,-248.8 L 7247,10074.5 Z m -450.73,-138.7 -142.75,-432.4 h -183.56 l 467.04,1374.6 h 214.15 l 469.07,-1374.6 h -189.67 l -146.85,432.4 h -487.43"
         style="fill:#ffffff;fill-opacity:1;fill-rule:nonzero;stroke:none"
         id="path32" />
    </g>
  </g>
</svg>
