<?xml version="1.0" encoding="UTF-8" standalone="no"?><!DOCTYPE svg PUBLIC "-//W3C//DTD SVG 1.1//EN" "http://www.w3.org/Graphics/SVG/1.1/DTD/svg11.dtd"><svg width="1799px" height="616px" version="1.1" xmlns="http://www.w3.org/2000/svg" xmlns:xlink="http://www.w3.org/1999/xlink" xml:space="preserve" xmlns:serif="http://www.serif.com/" style="fill-rule:evenodd;clip-rule:evenodd;stroke-linejoin:round;stroke-miterlimit:2;"><g transform="matrix(1,0,0,1,-73.777,-17.6423)"><g transform="matrix(50,0,0,50,91.4194,82.1973)"><path d="M0.47,0.11c-0.059,-0 -0.105,-0.015 -0.139,-0.044c-0.033,-0.029 -0.049,-0.069 -0.046,-0.122l0.01,-0.164c0.002,-0.035 -0.003,-0.061 -0.016,-0.076c-0.013,-0.016 -0.041,-0.024 -0.084,-0.024l-0.11,0l0,-0.08l0.11,0c0.043,0 0.071,-0.008 0.084,-0.023c0.013,-0.016 0.018,-0.042 0.016,-0.077l-0.01,-0.164c-0.003,-0.053 0.013,-0.093 0.046,-0.122c0.034,-0.029 0.08,-0.044 0.139,-0.044l0.045,0l0,0.08l-0.045,0c-0.031,0 -0.055,0.007 -0.072,0.022c-0.017,0.014 -0.024,0.035 -0.023,0.064l0.01,0.164c0.002,0.038 -0.006,0.069 -0.024,0.094c-0.017,0.025 -0.043,0.04 -0.076,0.046c0.033,0.006 0.058,0.021 0.076,0.046c0.018,0.025 0.026,0.056 0.024,0.094l-0.01,0.164c-0.001,0.029 0.006,0.05 0.023,0.064c0.017,0.015 0.041,0.022 0.072,0.022l0.045,0l0,0.08l-0.045,0Z" style="fill:#666;fill-rule:nonzero;"/></g><g transform="matrix(50,0,0,50,151.419,148.864)"><path d="M0.365,-0.43l-0.012,-0.21l0,-0.09l0.097,0l0,0.09l-0.011,0.21l-0.074,0Zm-0.203,0l-0.012,-0.21l0,-0.09l0.097,0l0,0.09l-0.011,0.21l-0.074,0Z" style="fill:#ff6000;fill-rule:nonzero;"/></g><g transform="matrix(50,0,0,50,181.419,148.864)"><path d="M0.123,-0l-0.088,-0.55l0.08,0l0.055,0.39c0.002,0.015 0.004,0.031 0.006,0.048c0.003,0.017 0.005,0.031 0.006,0.042c0.001,-0.011 0.003,-0.025 0.006,-0.042c0.003,-0.017 0.006,-0.033 0.008,-0.048l0.061,-0.39l0.086,0l0.061,0.39c0.002,0.015 0.004,0.031 0.007,0.048c0.003,0.017 0.006,0.031 0.007,0.042c0.001,-0.011 0.003,-0.025 0.006,-0.042c0.003,-0.017 0.006,-0.033 0.008,-0.048l0.057,-0.39l0.076,0l-0.092,0.55l-0.099,-0l-0.059,-0.38c-0.003,-0.019 -0.006,-0.037 -0.009,-0.056c-0.003,-0.019 -0.006,-0.033 -0.007,-0.044c-0.001,0.011 -0.003,0.025 -0.006,0.044c-0.003,0.019 -0.006,0.037 -0.009,0.056l-0.062,0.38l-0.099,-0Z" style="fill:#ff6000;fill-rule:nonzero;"/></g><g transform="matrix(50,0,0,50,211.419,148.864)"><path d="M0.3,0.01c-0.043,-0 -0.081,-0.009 -0.113,-0.026c-0.033,-0.017 -0.058,-0.042 -0.076,-0.074c-0.017,-0.031 -0.026,-0.068 -0.026,-0.11l0,-0.15c0,-0.043 0.009,-0.08 0.027,-0.111c0.017,-0.031 0.042,-0.056 0.075,-0.073c0.032,-0.017 0.07,-0.026 0.113,-0.026c0.043,-0 0.081,0.009 0.113,0.026c0.033,0.017 0.058,0.042 0.076,0.073c0.017,0.031 0.026,0.068 0.026,0.111l0,0.097l-0.342,-0l0,0.053c0,0.043 0.011,0.076 0.033,0.099c0.022,0.023 0.053,0.035 0.094,0.035c0.035,-0 0.063,-0.006 0.084,-0.019c0.021,-0.012 0.034,-0.03 0.039,-0.055l0.09,-0c-0.006,0.046 -0.029,0.082 -0.068,0.109c-0.039,0.027 -0.087,0.041 -0.145,0.041Zm-0.127,-0.331l0.254,-0l-0,-0.029c-0,-0.043 -0.011,-0.077 -0.033,-0.1c-0.021,-0.023 -0.053,-0.035 -0.094,-0.035c-0.041,0 -0.072,0.012 -0.094,0.035c-0.022,0.023 -0.033,0.057 -0.033,0.1l-0,0.029Z" style="fill:#ff6000;fill-rule:nonzero;"/></g><g transform="matrix(50,0,0,50,241.419,148.864)"><path d="M0.38,-0c-0.049,-0 -0.088,-0.014 -0.116,-0.043c-0.03,-0.028 -0.044,-0.065 -0.044,-0.112l-0,-0.493l-0.19,0l-0,-0.082l0.28,0l-0,0.575c-0,0.023 0.006,0.04 0.019,0.053c0.013,0.013 0.03,0.02 0.051,0.02l0.17,-0l0,0.082l-0.17,-0Z" style="fill:#ff6000;fill-rule:nonzero;"/></g><g transform="matrix(50,0,0,50,271.419,148.864)"><path d="M0.304,0.01c-0.067,-0 -0.12,-0.019 -0.16,-0.056c-0.039,-0.037 -0.059,-0.089 -0.059,-0.154l0,-0.15c0,-0.065 0.02,-0.117 0.059,-0.154c0.04,-0.037 0.093,-0.056 0.16,-0.056c0.063,0 0.114,0.017 0.153,0.051c0.039,0.034 0.059,0.08 0.061,0.139l-0.09,0c-0.002,-0.035 -0.014,-0.063 -0.036,-0.082c-0.021,-0.018 -0.051,-0.028 -0.088,-0.028c-0.039,0 -0.071,0.011 -0.094,0.034c-0.023,0.022 -0.035,0.054 -0.035,0.095l-0,0.151c-0,0.041 0.012,0.073 0.035,0.096c0.023,0.023 0.055,0.034 0.094,0.034c0.037,0 0.067,-0.01 0.088,-0.029c0.022,-0.019 0.034,-0.046 0.036,-0.081l0.09,0c-0.002,0.059 -0.022,0.105 -0.061,0.139c-0.039,0.034 -0.09,0.051 -0.153,0.051Z" style="fill:#ff6000;fill-rule:nonzero;"/></g><g transform="matrix(50,0,0,50,301.419,148.864)"><path d="M0.3,0.008c-0.067,-0 -0.119,-0.019 -0.158,-0.057c-0.038,-0.037 -0.057,-0.088 -0.057,-0.153l0,-0.146c0,-0.065 0.019,-0.117 0.057,-0.154c0.039,-0.037 0.091,-0.056 0.158,-0.056c0.067,0 0.119,0.019 0.158,0.056c0.038,0.037 0.057,0.088 0.057,0.153l0,0.147c0,0.065 -0.019,0.116 -0.057,0.153c-0.039,0.038 -0.091,0.057 -0.158,0.057Zm-0,-0.08c0.039,-0 0.07,-0.011 0.092,-0.033c0.022,-0.022 0.033,-0.054 0.033,-0.097l-0,-0.146c-0,-0.043 -0.011,-0.075 -0.033,-0.097c-0.022,-0.022 -0.053,-0.033 -0.092,-0.033c-0.039,0 -0.069,0.011 -0.092,0.033c-0.022,0.022 -0.033,0.054 -0.033,0.097l-0,0.146c-0,0.043 0.011,0.075 0.033,0.097c0.023,0.022 0.053,0.033 0.092,0.033Z" style="fill:#ff6000;fill-rule:nonzero;"/></g><g transform="matrix(50,0,0,50,331.419,148.864)"><path d="M0.066,-0l0,-0.55l0.079,0l-0,0.066l0.006,0c0.004,-0.023 0.014,-0.042 0.029,-0.055c0.016,-0.014 0.036,-0.021 0.06,-0.021c0.047,0 0.077,0.025 0.09,0.076l0.004,0c0.004,-0.023 0.014,-0.042 0.03,-0.055c0.017,-0.014 0.037,-0.021 0.061,-0.021c0.035,0 0.062,0.013 0.08,0.039c0.019,0.026 0.029,0.06 0.029,0.103l0,0.418l-0.083,0l0,-0.419c0,-0.023 -0.005,-0.04 -0.015,-0.053c-0.009,-0.013 -0.023,-0.019 -0.042,-0.019c-0.018,0 -0.032,0.006 -0.043,0.019c-0.01,0.012 -0.015,0.029 -0.015,0.052l0,0.42l-0.072,0l0,-0.419c0,-0.023 -0.005,-0.041 -0.016,-0.053c-0.01,-0.013 -0.024,-0.019 -0.043,-0.019c-0.019,0 -0.033,0.006 -0.042,0.019c-0.009,0.012 -0.014,0.029 -0.014,0.052l0,0.42l-0.083,0Z" style="fill:#ff6000;fill-rule:nonzero;"/></g><g transform="matrix(50,0,0,50,361.419,148.864)"><path d="M0.3,0.01c-0.043,-0 -0.081,-0.009 -0.113,-0.026c-0.033,-0.017 -0.058,-0.042 -0.076,-0.074c-0.017,-0.031 -0.026,-0.068 -0.026,-0.11l0,-0.15c0,-0.043 0.009,-0.08 0.027,-0.111c0.017,-0.031 0.042,-0.056 0.075,-0.073c0.032,-0.017 0.07,-0.026 0.113,-0.026c0.043,-0 0.081,0.009 0.113,0.026c0.033,0.017 0.058,0.042 0.076,0.073c0.017,0.031 0.026,0.068 0.026,0.111l0,0.097l-0.342,-0l0,0.053c0,0.043 0.011,0.076 0.033,0.099c0.022,0.023 0.053,0.035 0.094,0.035c0.035,-0 0.063,-0.006 0.084,-0.019c0.021,-0.012 0.034,-0.03 0.039,-0.055l0.09,-0c-0.006,0.046 -0.029,0.082 -0.068,0.109c-0.039,0.027 -0.087,0.041 -0.145,0.041Zm-0.127,-0.331l0.254,-0l-0,-0.029c-0,-0.043 -0.011,-0.077 -0.033,-0.1c-0.021,-0.023 -0.053,-0.035 -0.094,-0.035c-0.041,0 -0.072,0.012 -0.094,0.035c-0.022,0.023 -0.033,0.057 -0.033,0.1l-0,0.029Z" style="fill:#ff6000;fill-rule:nonzero;"/></g><g transform="matrix(50,0,0,50,391.419,148.864)"><path d="M0.365,-0.43l-0.012,-0.21l0,-0.09l0.097,0l0,0.09l-0.011,0.21l-0.074,0Zm-0.203,0l-0.012,-0.21l0,-0.09l0.097,0l0,0.09l-0.011,0.21l-0.074,0Z" style="fill:#ff6000;fill-rule:nonzero;"/></g><g transform="matrix(50,0,0,50,421.419,148.864)"><path d="M0.3,-0.41c-0.025,0 -0.045,-0.007 -0.06,-0.02c-0.015,-0.014 -0.023,-0.032 -0.023,-0.055c0,-0.023 0.008,-0.041 0.023,-0.054c0.015,-0.014 0.035,-0.021 0.06,-0.021c0.025,0 0.045,0.007 0.061,0.021c0.015,0.013 0.022,0.031 0.022,0.054c0,0.023 -0.008,0.041 -0.023,0.055c-0.015,0.013 -0.035,0.02 -0.06,0.02Zm0,0.42c-0.025,-0 -0.045,-0.007 -0.06,-0.02c-0.015,-0.014 -0.023,-0.032 -0.023,-0.055c0,-0.023 0.008,-0.041 0.023,-0.054c0.015,-0.014 0.035,-0.021 0.06,-0.021c0.025,0 0.045,0.007 0.061,0.021c0.015,0.013 0.022,0.031 0.022,0.054c0,0.023 -0.008,0.041 -0.023,0.055c-0.015,0.013 -0.035,0.02 -0.06,0.02Z" style="fill:#666;fill-rule:nonzero;"/></g><g transform="matrix(50,0,0,50,481.419,148.864)"><path d="M0.47,0.11c-0.059,-0 -0.105,-0.015 -0.139,-0.044c-0.033,-0.029 -0.049,-0.069 -0.046,-0.122l0.01,-0.164c0.002,-0.035 -0.003,-0.061 -0.016,-0.076c-0.013,-0.016 -0.041,-0.024 -0.084,-0.024l-0.11,0l0,-0.08l0.11,0c0.043,0 0.071,-0.008 0.084,-0.023c0.013,-0.016 0.018,-0.042 0.016,-0.077l-0.01,-0.164c-0.003,-0.053 0.013,-0.093 0.046,-0.122c0.034,-0.029 0.08,-0.044 0.139,-0.044l0.045,0l0,0.08l-0.045,0c-0.031,0 -0.055,0.007 -0.072,0.022c-0.017,0.014 -0.024,0.035 -0.023,0.064l0.01,0.164c0.002,0.038 -0.006,0.069 -0.024,0.094c-0.017,0.025 -0.043,0.04 -0.076,0.046c0.033,0.006 0.058,0.021 0.076,0.046c0.018,0.025 0.026,0.056 0.024,0.094l-0.01,0.164c-0.001,0.029 0.006,0.05 0.023,0.064c0.017,0.015 0.041,0.022 0.072,0.022l0.045,0l0,0.08l-0.045,0Z" style="fill:#666;fill-rule:nonzero;"/></g><g transform="matrix(50,0,0,50,211.419,215.531)"><path d="M0.365,-0.43l-0.012,-0.21l0,-0.09l0.097,0l0,0.09l-0.011,0.21l-0.074,0Zm-0.203,0l-0.012,-0.21l0,-0.09l0.097,0l0,0.09l-0.011,0.21l-0.074,0Z" style="fill:#ff6000;fill-rule:nonzero;"/></g><g transform="matrix(50,0,0,50,241.419,215.531)"><path d="M0.36,-0c-0.047,-0 -0.084,-0.013 -0.11,-0.038c-0.027,-0.025 -0.04,-0.061 -0.04,-0.107l0,-0.323l-0.155,-0l0,-0.082l0.155,-0l0,-0.155l0.09,0l0,0.155l0.22,-0l0,0.082l-0.22,-0l-0,0.323c-0,0.042 0.02,0.063 0.06,0.063l0.15,-0l0,0.082l-0.15,-0Z" style="fill:#ff6000;fill-rule:nonzero;"/></g><g transform="matrix(50,0,0,50,271.419,215.531)"><path d="M0.085,-0l0,-0.082l0.195,0l0,-0.386l-0.17,0l-0,-0.082l0.26,0l0,0.468l0.185,0l0,0.082l-0.47,0Zm0.23,-0.649c-0.022,0 -0.039,-0.006 -0.052,-0.017c-0.013,-0.011 -0.019,-0.027 -0.019,-0.046c0,-0.02 0.006,-0.036 0.019,-0.047c0.013,-0.012 0.03,-0.018 0.052,-0.018c0.022,0 0.039,0.006 0.052,0.018c0.013,0.011 0.019,0.027 0.019,0.047c0,0.019 -0.006,0.035 -0.019,0.046c-0.013,0.011 -0.03,0.017 -0.052,0.017Z" style="fill:#ff6000;fill-rule:nonzero;"/></g><g transform="matrix(50,0,0,50,301.419,215.531)"><path d="M0.36,-0c-0.047,-0 -0.084,-0.013 -0.11,-0.038c-0.027,-0.025 -0.04,-0.061 -0.04,-0.107l0,-0.323l-0.155,-0l0,-0.082l0.155,-0l0,-0.155l0.09,0l0,0.155l0.22,-0l0,0.082l-0.22,-0l-0,0.323c-0,0.042 0.02,0.063 0.06,0.063l0.15,-0l0,0.082l-0.15,-0Z" style="fill:#ff6000;fill-rule:nonzero;"/></g><g transform="matrix(50,0,0,50,331.419,215.531)"><path d="M0.38,-0c-0.049,-0 -0.088,-0.014 -0.116,-0.043c-0.03,-0.028 -0.044,-0.065 -0.044,-0.112l-0,-0.493l-0.19,0l-0,-0.082l0.28,0l-0,0.575c-0,0.023 0.006,0.04 0.019,0.053c0.013,0.013 0.03,0.02 0.051,0.02l0.17,-0l0,0.082l-0.17,-0Z" style="fill:#ff6000;fill-rule:nonzero;"/></g><g transform="matrix(50,0,0,50,361.419,215.531)"><path d="M0.3,0.01c-0.043,-0 -0.081,-0.009 -0.113,-0.026c-0.033,-0.017 -0.058,-0.042 -0.076,-0.074c-0.017,-0.031 -0.026,-0.068 -0.026,-0.11l0,-0.15c0,-0.043 0.009,-0.08 0.027,-0.111c0.017,-0.031 0.042,-0.056 0.075,-0.073c0.032,-0.017 0.07,-0.026 0.113,-0.026c0.043,-0 0.081,0.009 0.113,0.026c0.033,0.017 0.058,0.042 0.076,0.073c0.017,0.031 0.026,0.068 0.026,0.111l0,0.097l-0.342,-0l0,0.053c0,0.043 0.011,0.076 0.033,0.099c0.022,0.023 0.053,0.035 0.094,0.035c0.035,-0 0.063,-0.006 0.084,-0.019c0.021,-0.012 0.034,-0.03 0.039,-0.055l0.09,-0c-0.006,0.046 -0.029,0.082 -0.068,0.109c-0.039,0.027 -0.087,0.041 -0.145,0.041Zm-0.127,-0.331l0.254,-0l-0,-0.029c-0,-0.043 -0.011,-0.077 -0.033,-0.1c-0.021,-0.023 -0.053,-0.035 -0.094,-0.035c-0.041,0 -0.072,0.012 -0.094,0.035c-0.022,0.023 -0.033,0.057 -0.033,0.1l-0,0.029Z" style="fill:#ff6000;fill-rule:nonzero;"/></g><g transform="matrix(50,0,0,50,391.419,215.531)"><path d="M0.365,-0.43l-0.012,-0.21l0,-0.09l0.097,0l0,0.09l-0.011,0.21l-0.074,0Zm-0.203,0l-0.012,-0.21l0,-0.09l0.097,0l0,0.09l-0.011,0.21l-0.074,0Z" style="fill:#ff6000;fill-rule:nonzero;"/></g><g transform="matrix(50,0,0,50,421.419,215.531)"><path d="M0.3,-0.41c-0.025,0 -0.045,-0.007 -0.06,-0.02c-0.015,-0.014 -0.023,-0.032 -0.023,-0.055c0,-0.023 0.008,-0.041 0.023,-0.054c0.015,-0.014 0.035,-0.021 0.06,-0.021c0.025,0 0.045,0.007 0.061,0.021c0.015,0.013 0.022,0.031 0.022,0.054c0,0.023 -0.008,0.041 -0.023,0.055c-0.015,0.013 -0.035,0.02 -0.06,0.02Zm0,0.42c-0.025,-0 -0.045,-0.007 -0.06,-0.02c-0.015,-0.014 -0.023,-0.032 -0.023,-0.055c0,-0.023 0.008,-0.041 0.023,-0.054c0.015,-0.014 0.035,-0.021 0.06,-0.021c0.025,0 0.045,0.007 0.061,0.021c0.015,0.013 0.022,0.031 0.022,0.054c0,0.023 -0.008,0.041 -0.023,0.055c-0.015,0.013 -0.035,0.02 -0.06,0.02Z" style="fill:#666;fill-rule:nonzero;"/></g><g transform="matrix(50,0,0,50,481.419,215.531)"><path d="M0.365,-0.43l-0.012,-0.21l0,-0.09l0.097,0l0,0.09l-0.011,0.21l-0.074,0Zm-0.203,0l-0.012,-0.21l0,-0.09l0.097,0l0,0.09l-0.011,0.21l-0.074,0Z" style="fill:#089700;fill-rule:nonzero;"/></g><g transform="matrix(50,0,0,50,511.419,215.531)"><path d="M0.093,-0l0,-0.73l0.09,0l0,0.312l0.234,0l-0,-0.312l0.09,0l0,0.73l-0.09,-0l-0,-0.336l-0.234,0l-0,0.336l-0.09,-0Z" style="fill:#089700;fill-rule:nonzero;"/></g><g transform="matrix(50,0,0,50,541.419,215.531)"><path d="M0.3,0.01c-0.043,-0 -0.081,-0.009 -0.113,-0.026c-0.033,-0.017 -0.058,-0.042 -0.076,-0.074c-0.017,-0.031 -0.026,-0.068 -0.026,-0.11l0,-0.15c0,-0.043 0.009,-0.08 0.027,-0.111c0.017,-0.031 0.042,-0.056 0.075,-0.073c0.032,-0.017 0.07,-0.026 0.113,-0.026c0.043,-0 0.081,0.009 0.113,0.026c0.033,0.017 0.058,0.042 0.076,0.073c0.017,0.031 0.026,0.068 0.026,0.111l0,0.097l-0.342,-0l0,0.053c0,0.043 0.011,0.076 0.033,0.099c0.022,0.023 0.053,0.035 0.094,0.035c0.035,-0 0.063,-0.006 0.084,-0.019c0.021,-0.012 0.034,-0.03 0.039,-0.055l0.09,-0c-0.006,0.046 -0.029,0.082 -0.068,0.109c-0.039,0.027 -0.087,0.041 -0.145,0.041Zm-0.127,-0.331l0.254,-0l-0,-0.029c-0,-0.043 -0.011,-0.077 -0.033,-0.1c-0.021,-0.023 -0.053,-0.035 -0.094,-0.035c-0.041,0 -0.072,0.012 -0.094,0.035c-0.022,0.023 -0.033,0.057 -0.033,0.1l-0,0.029Z" style="fill:#089700;fill-rule:nonzero;"/></g><g transform="matrix(50,0,0,50,571.419,215.531)"><path d="M0.38,-0c-0.049,-0 -0.088,-0.014 -0.116,-0.043c-0.03,-0.028 -0.044,-0.065 -0.044,-0.112l-0,-0.493l-0.19,0l-0,-0.082l0.28,0l-0,0.575c-0,0.023 0.006,0.04 0.019,0.053c0.013,0.013 0.03,0.02 0.051,0.02l0.17,-0l0,0.082l-0.17,-0Z" style="fill:#089700;fill-rule:nonzero;"/></g><g transform="matrix(50,0,0,50,601.419,215.531)"><path d="M0.38,-0c-0.049,-0 -0.088,-0.014 -0.116,-0.043c-0.03,-0.028 -0.044,-0.065 -0.044,-0.112l-0,-0.493l-0.19,0l-0,-0.082l0.28,0l-0,0.575c-0,0.023 0.006,0.04 0.019,0.053c0.013,0.013 0.03,0.02 0.051,0.02l0.17,-0l0,0.082l-0.17,-0Z" style="fill:#089700;fill-rule:nonzero;"/></g><g transform="matrix(50,0,0,50,631.419,215.531)"><path d="M0.3,0.008c-0.067,-0 -0.119,-0.019 -0.158,-0.057c-0.038,-0.037 -0.057,-0.088 -0.057,-0.153l0,-0.146c0,-0.065 0.019,-0.117 0.057,-0.154c0.039,-0.037 0.091,-0.056 0.158,-0.056c0.067,0 0.119,0.019 0.158,0.056c0.038,0.037 0.057,0.088 0.057,0.153l0,0.147c0,0.065 -0.019,0.116 -0.057,0.153c-0.039,0.038 -0.091,0.057 -0.158,0.057Zm-0,-0.08c0.039,-0 0.07,-0.011 0.092,-0.033c0.022,-0.022 0.033,-0.054 0.033,-0.097l-0,-0.146c-0,-0.043 -0.011,-0.075 -0.033,-0.097c-0.022,-0.022 -0.053,-0.033 -0.092,-0.033c-0.039,0 -0.069,0.011 -0.092,0.033c-0.022,0.022 -0.033,0.054 -0.033,0.097l-0,0.146c-0,0.043 0.011,0.075 0.033,0.097c0.023,0.022 0.053,0.033 0.092,0.033Z" style="fill:#089700;fill-rule:nonzero;"/></g><g transform="matrix(50,0,0,50,691.419,215.531)"><path d="M0.275,0.14l0,-0.131c-0.063,-0.005 -0.112,-0.026 -0.148,-0.061c-0.035,-0.035 -0.054,-0.081 -0.055,-0.138l0.09,0c-0,0.033 0.01,0.059 0.029,0.08c0.02,0.021 0.048,0.033 0.084,0.038l0,-0.262l-0.027,-0.008c-0.05,-0.015 -0.089,-0.041 -0.116,-0.077c-0.027,-0.036 -0.04,-0.078 -0.04,-0.127c0,-0.053 0.017,-0.097 0.049,-0.132c0.033,-0.035 0.078,-0.055 0.134,-0.06l0,-0.132l0.06,0l0,0.131c0.055,0.005 0.1,0.025 0.133,0.06c0.033,0.035 0.05,0.079 0.051,0.134l-0.09,0c-0,-0.031 -0.008,-0.057 -0.025,-0.077c-0.016,-0.019 -0.039,-0.031 -0.069,-0.036l0,0.248l0.04,0.013c0.049,0.015 0.086,0.041 0.113,0.078c0.027,0.037 0.04,0.08 0.04,0.129c0,0.055 -0.018,0.1 -0.053,0.136c-0.035,0.036 -0.081,0.057 -0.14,0.063l0,0.131l-0.06,0Zm-0.093,-0.694c-0,0.03 0.008,0.056 0.024,0.078c0.016,0.022 0.039,0.038 0.069,0.047l0,-0.229c-0.029,0.005 -0.052,0.016 -0.069,0.034c-0.016,0.018 -0.024,0.041 -0.024,0.07Zm0.153,0.482c0.033,-0.005 0.058,-0.018 0.076,-0.038c0.018,-0.02 0.027,-0.046 0.027,-0.078c-0,-0.029 -0.008,-0.055 -0.024,-0.077c-0.015,-0.022 -0.038,-0.037 -0.067,-0.046l-0.012,-0.004l0,0.243Z" style="fill:#089700;fill-rule:nonzero;"/></g><g transform="matrix(50,0,0,50,721.419,215.531)"><path d="M0.092,-0l0,-0.55l0.09,0l0,0.105l0.001,0c0.005,-0.037 0.02,-0.065 0.045,-0.085c0.025,-0.02 0.059,-0.03 0.101,-0.03c0.055,0 0.099,0.017 0.132,0.051c0.033,0.034 0.049,0.08 0.049,0.139l0,0.37l-0.09,-0l-0,-0.36c-0,-0.039 -0.011,-0.07 -0.032,-0.091c-0.021,-0.021 -0.049,-0.031 -0.085,-0.031c-0.037,0 -0.067,0.011 -0.089,0.034c-0.021,0.023 -0.032,0.055 -0.032,0.098l0,0.35l-0.09,-0Z" style="fill:#089700;fill-rule:nonzero;"/></g><g transform="matrix(50,0,0,50,751.419,215.531)"><path d="M0.252,0.01c-0.058,-0 -0.104,-0.015 -0.137,-0.045c-0.033,-0.029 -0.05,-0.069 -0.05,-0.12c0,-0.051 0.017,-0.092 0.05,-0.121c0.033,-0.029 0.078,-0.044 0.135,-0.044l0.17,0l-0,-0.055c-0,-0.033 -0.01,-0.059 -0.031,-0.078c-0.02,-0.019 -0.049,-0.028 -0.086,-0.028c-0.033,0 -0.06,0.007 -0.081,0.021c-0.021,0.013 -0.034,0.032 -0.039,0.055l-0.09,0c0.006,-0.047 0.028,-0.085 0.067,-0.113c0.039,-0.028 0.087,-0.042 0.145,-0.042c0.063,0 0.113,0.016 0.15,0.049c0.037,0.033 0.055,0.077 0.055,0.133l0,0.378l-0.088,-0l-0,-0.105l-0.001,0c-0.004,0.035 -0.021,0.063 -0.052,0.084c-0.03,0.021 -0.069,0.031 -0.117,0.031Zm0.022,-0.071c0.043,0 0.078,-0.011 0.105,-0.032c0.027,-0.021 0.041,-0.049 0.041,-0.082l-0,-0.078l-0.168,0c-0.03,0 -0.054,0.008 -0.071,0.025c-0.017,0.017 -0.026,0.039 -0.026,0.068c0,0.031 0.011,0.055 0.032,0.073c0.02,0.017 0.05,0.026 0.087,0.026Z" style="fill:#089700;fill-rule:nonzero;"/></g><g transform="matrix(50,0,0,50,781.419,215.531)"><path d="M0.066,-0l0,-0.55l0.079,0l-0,0.066l0.006,0c0.004,-0.023 0.014,-0.042 0.029,-0.055c0.016,-0.014 0.036,-0.021 0.06,-0.021c0.047,0 0.077,0.025 0.09,0.076l0.004,0c0.004,-0.023 0.014,-0.042 0.03,-0.055c0.017,-0.014 0.037,-0.021 0.061,-0.021c0.035,0 0.062,0.013 0.08,0.039c0.019,0.026 0.029,0.06 0.029,0.103l0,0.418l-0.083,0l0,-0.419c0,-0.023 -0.005,-0.04 -0.015,-0.053c-0.009,-0.013 -0.023,-0.019 -0.042,-0.019c-0.018,0 -0.032,0.006 -0.043,0.019c-0.01,0.012 -0.015,0.029 -0.015,0.052l0,0.42l-0.072,0l0,-0.419c0,-0.023 -0.005,-0.041 -0.016,-0.053c-0.01,-0.013 -0.024,-0.019 -0.043,-0.019c-0.019,0 -0.033,0.006 -0.042,0.019c-0.009,0.012 -0.014,0.029 -0.014,0.052l0,0.42l-0.083,0Z" style="fill:#089700;fill-rule:nonzero;"/></g><g transform="matrix(50,0,0,50,811.419,215.531)"><path d="M0.3,0.01c-0.043,-0 -0.081,-0.009 -0.113,-0.026c-0.033,-0.017 -0.058,-0.042 -0.076,-0.074c-0.017,-0.031 -0.026,-0.068 -0.026,-0.11l0,-0.15c0,-0.043 0.009,-0.08 0.027,-0.111c0.017,-0.031 0.042,-0.056 0.075,-0.073c0.032,-0.017 0.07,-0.026 0.113,-0.026c0.043,-0 0.081,0.009 0.113,0.026c0.033,0.017 0.058,0.042 0.076,0.073c0.017,0.031 0.026,0.068 0.026,0.111l0,0.097l-0.342,-0l0,0.053c0,0.043 0.011,0.076 0.033,0.099c0.022,0.023 0.053,0.035 0.094,0.035c0.035,-0 0.063,-0.006 0.084,-0.019c0.021,-0.012 0.034,-0.03 0.039,-0.055l0.09,-0c-0.006,0.046 -0.029,0.082 -0.068,0.109c-0.039,0.027 -0.087,0.041 -0.145,0.041Zm-0.127,-0.331l0.254,-0l-0,-0.029c-0,-0.043 -0.011,-0.077 -0.033,-0.1c-0.021,-0.023 -0.053,-0.035 -0.094,-0.035c-0.041,0 -0.072,0.012 -0.094,0.035c-0.022,0.023 -0.033,0.057 -0.033,0.1l-0,0.029Z" style="fill:#089700;fill-rule:nonzero;"/></g><g transform="matrix(50,0,0,50,841.419,215.531)"><path d="M0.268,-0.215l-0.021,-0.395l-0,-0.12l0.106,0l-0,0.12l-0.021,0.395l-0.064,-0Zm0.017,0.22c-0.017,-0 -0.032,-0.006 -0.043,-0.017c-0.011,-0.011 -0.017,-0.026 -0.017,-0.043c-0,-0.017 0.006,-0.032 0.017,-0.043c0.011,-0.011 0.026,-0.017 0.043,-0.017l0.03,-0c0.019,-0 0.034,0.005 0.044,0.016c0.011,0.011 0.016,0.026 0.016,0.043c-0,0.017 -0.006,0.032 -0.017,0.043c-0.011,0.012 -0.026,0.018 -0.043,0.018l-0.03,-0Z" style="fill:#089700;fill-rule:nonzero;"/></g><g transform="matrix(50,0,0,50,871.419,215.531)"><path d="M0.365,-0.43l-0.012,-0.21l0,-0.09l0.097,0l0,0.09l-0.011,0.21l-0.074,0Zm-0.203,0l-0.012,-0.21l0,-0.09l0.097,0l0,0.09l-0.011,0.21l-0.074,0Z" style="fill:#089700;fill-rule:nonzero;"/></g><g transform="matrix(50,0,0,50,151.419,282.197)"><path d="M0.085,0.11l0,-0.08l0.045,0c0.031,-0 0.055,-0.007 0.072,-0.022c0.017,-0.014 0.024,-0.035 0.023,-0.064l-0.01,-0.164c-0.002,-0.038 0.006,-0.069 0.024,-0.094c0.018,-0.025 0.043,-0.04 0.076,-0.046c-0.033,-0.006 -0.059,-0.021 -0.077,-0.046c-0.017,-0.025 -0.025,-0.056 -0.023,-0.094l0.01,-0.164c0.001,-0.029 -0.006,-0.05 -0.023,-0.065c-0.017,-0.014 -0.041,-0.021 -0.072,-0.021l-0.045,0l0,-0.08l0.045,0c0.059,0 0.106,0.015 0.14,0.044c0.033,0.029 0.048,0.069 0.045,0.122l-0.01,0.164c-0.002,0.035 0.003,0.061 0.016,0.077c0.013,0.015 0.041,0.023 0.084,0.023l0.11,-0l0,0.08l-0.11,-0c-0.043,-0 -0.071,0.008 -0.084,0.023c-0.013,0.016 -0.018,0.042 -0.016,0.077l0.01,0.164c0.003,0.053 -0.012,0.093 -0.045,0.122c-0.034,0.029 -0.081,0.044 -0.14,0.044l-0.045,-0Z" style="fill:#666;fill-rule:nonzero;"/></g><g transform="matrix(50,0,0,50,181.419,282.197)"><path d="M0.165,0.16l0.08,-0.311l0.13,0l-0.13,0.311l-0.08,0Z" style="fill:#666;fill-rule:nonzero;"/></g><g transform="matrix(50,0,0,50,151.419,348.864)"><path d="M0.365,-0.43l-0.012,-0.21l0,-0.09l0.097,0l0,0.09l-0.011,0.21l-0.074,0Zm-0.203,0l-0.012,-0.21l0,-0.09l0.097,0l0,0.09l-0.011,0.21l-0.074,0Z" style="fill:#ff6000;fill-rule:nonzero;"/></g><g transform="matrix(50,0,0,50,181.419,348.864)"><path d="M0.283,0.008c-0.057,-0 -0.102,-0.013 -0.135,-0.039c-0.033,-0.025 -0.053,-0.06 -0.058,-0.104l0.09,0c0.004,0.019 0.015,0.035 0.032,0.046c0.018,0.011 0.042,0.017 0.071,0.017l0.042,0c0.035,0 0.062,-0.007 0.079,-0.021c0.017,-0.015 0.026,-0.034 0.026,-0.058c-0,-0.045 -0.031,-0.073 -0.093,-0.083l-0.074,-0.012c-0.054,-0.009 -0.094,-0.026 -0.121,-0.05c-0.026,-0.025 -0.039,-0.06 -0.039,-0.107c-0,-0.049 0.016,-0.087 0.047,-0.114c0.031,-0.027 0.078,-0.041 0.141,-0.041l0.038,0c0.053,0 0.095,0.012 0.127,0.037c0.032,0.025 0.051,0.058 0.058,0.1l-0.09,0c-0.004,-0.017 -0.014,-0.031 -0.03,-0.041c-0.016,-0.011 -0.038,-0.016 -0.065,-0.016l-0.038,0c-0.034,0 -0.059,0.006 -0.075,0.019c-0.015,0.013 -0.023,0.032 -0.023,0.057c-0,0.023 0.007,0.039 0.02,0.05c0.013,0.011 0.034,0.018 0.063,0.023l0.074,0.012c0.059,0.009 0.102,0.027 0.129,0.052c0.027,0.025 0.041,0.062 0.041,0.11c-0,0.051 -0.016,0.091 -0.049,0.12c-0.032,0.029 -0.081,0.043 -0.146,0.043l-0.042,0Z" style="fill:#ff6000;fill-rule:nonzero;"/></g><g transform="matrix(50,0,0,50,211.419,348.864)"><path d="M0.36,-0c-0.047,-0 -0.084,-0.013 -0.11,-0.038c-0.027,-0.025 -0.04,-0.061 -0.04,-0.107l0,-0.323l-0.155,-0l0,-0.082l0.155,-0l0,-0.155l0.09,0l0,0.155l0.22,-0l0,0.082l-0.22,-0l-0,0.323c-0,0.042 0.02,0.063 0.06,0.063l0.15,-0l0,0.082l-0.15,-0Z" style="fill:#ff6000;fill-rule:nonzero;"/></g><g transform="matrix(50,0,0,50,241.419,348.864)"><path d="M0.3,0.01c-0.043,-0 -0.081,-0.009 -0.113,-0.026c-0.033,-0.017 -0.058,-0.042 -0.076,-0.074c-0.017,-0.031 -0.026,-0.068 -0.026,-0.11l0,-0.15c0,-0.043 0.009,-0.08 0.027,-0.111c0.017,-0.031 0.042,-0.056 0.075,-0.073c0.032,-0.017 0.07,-0.026 0.113,-0.026c0.043,-0 0.081,0.009 0.113,0.026c0.033,0.017 0.058,0.042 0.076,0.073c0.017,0.031 0.026,0.068 0.026,0.111l0,0.097l-0.342,-0l0,0.053c0,0.043 0.011,0.076 0.033,0.099c0.022,0.023 0.053,0.035 0.094,0.035c0.035,-0 0.063,-0.006 0.084,-0.019c0.021,-0.012 0.034,-0.03 0.039,-0.055l0.09,-0c-0.006,0.046 -0.029,0.082 -0.068,0.109c-0.039,0.027 -0.087,0.041 -0.145,0.041Zm-0.127,-0.331l0.254,-0l-0,-0.029c-0,-0.043 -0.011,-0.077 -0.033,-0.1c-0.021,-0.023 -0.053,-0.035 -0.094,-0.035c-0.041,0 -0.072,0.012 -0.094,0.035c-0.022,0.023 -0.033,0.057 -0.033,0.1l-0,0.029Z" style="fill:#ff6000;fill-rule:nonzero;"/></g><g transform="matrix(50,0,0,50,271.419,348.864)"><path d="M0.092,0.18l0,-0.73l0.09,0l0,0.105l0.001,0c0.005,-0.036 0.02,-0.064 0.048,-0.084c0.027,-0.021 0.061,-0.031 0.102,-0.031c0.055,0 0.1,0.018 0.133,0.055c0.033,0.036 0.049,0.086 0.049,0.149l0,0.161c0,0.063 -0.017,0.113 -0.049,0.15c-0.034,0.037 -0.078,0.055 -0.133,0.055c-0.041,-0 -0.075,-0.01 -0.102,-0.031c-0.027,-0.021 -0.043,-0.049 -0.048,-0.084l-0.003,-0l0.002,0.125l0,0.16l-0.09,-0Zm0.211,-0.248c0.038,-0 0.068,-0.011 0.09,-0.034c0.021,-0.023 0.032,-0.055 0.032,-0.098l-0,-0.15c-0,-0.043 -0.011,-0.075 -0.033,-0.098c-0.021,-0.023 -0.051,-0.034 -0.089,-0.034c-0.037,0 -0.066,0.012 -0.088,0.035c-0.022,0.023 -0.033,0.056 -0.033,0.097l-0,0.15c-0,0.041 0.011,0.074 0.033,0.097c0.022,0.023 0.051,0.035 0.088,0.035Z" style="fill:#ff6000;fill-rule:nonzero;"/></g><g transform="matrix(50,0,0,50,301.419,348.864)"><path d="M0.283,0.008c-0.057,-0 -0.102,-0.013 -0.135,-0.039c-0.033,-0.025 -0.053,-0.06 -0.058,-0.104l0.09,0c0.004,0.019 0.015,0.035 0.032,0.046c0.018,0.011 0.042,0.017 0.071,0.017l0.042,0c0.035,0 0.062,-0.007 0.079,-0.021c0.017,-0.015 0.026,-0.034 0.026,-0.058c-0,-0.045 -0.031,-0.073 -0.093,-0.083l-0.074,-0.012c-0.054,-0.009 -0.094,-0.026 -0.121,-0.05c-0.026,-0.025 -0.039,-0.06 -0.039,-0.107c-0,-0.049 0.016,-0.087 0.047,-0.114c0.031,-0.027 0.078,-0.041 0.141,-0.041l0.038,0c0.053,0 0.095,0.012 0.127,0.037c0.032,0.025 0.051,0.058 0.058,0.1l-0.09,0c-0.004,-0.017 -0.014,-0.031 -0.03,-0.041c-0.016,-0.011 -0.038,-0.016 -0.065,-0.016l-0.038,0c-0.034,0 -0.059,0.006 -0.075,0.019c-0.015,0.013 -0.023,0.032 -0.023,0.057c-0,0.023 0.007,0.039 0.02,0.05c0.013,0.011 0.034,0.018 0.063,0.023l0.074,0.012c0.059,0.009 0.102,0.027 0.129,0.052c0.027,0.025 0.041,0.062 0.041,0.11c-0,0.051 -0.016,0.091 -0.049,0.12c-0.032,0.029 -0.081,0.043 -0.146,0.043l-0.042,0Z" style="fill:#ff6000;fill-rule:nonzero;"/></g><g transform="matrix(50,0,0,50,331.419,348.864)"><path d="M0.365,-0.43l-0.012,-0.21l0,-0.09l0.097,0l0,0.09l-0.011,0.21l-0.074,0Zm-0.203,0l-0.012,-0.21l0,-0.09l0.097,0l0,0.09l-0.011,0.21l-0.074,0Z" style="fill:#ff6000;fill-rule:nonzero;"/></g><g transform="matrix(50,0,0,50,361.419,348.864)"><path d="M0.3,-0.41c-0.025,0 -0.045,-0.007 -0.06,-0.02c-0.015,-0.014 -0.023,-0.032 -0.023,-0.055c0,-0.023 0.008,-0.041 0.023,-0.054c0.015,-0.014 0.035,-0.021 0.06,-0.021c0.025,0 0.045,0.007 0.061,0.021c0.015,0.013 0.022,0.031 0.022,0.054c0,0.023 -0.008,0.041 -0.023,0.055c-0.015,0.013 -0.035,0.02 -0.06,0.02Zm0,0.42c-0.025,-0 -0.045,-0.007 -0.06,-0.02c-0.015,-0.014 -0.023,-0.032 -0.023,-0.055c0,-0.023 0.008,-0.041 0.023,-0.054c0.015,-0.014 0.035,-0.021 0.06,-0.021c0.025,0 0.045,0.007 0.061,0.021c0.015,0.013 0.022,0.031 0.022,0.054c0,0.023 -0.008,0.041 -0.023,0.055c-0.015,0.013 -0.035,0.02 -0.06,0.02Z" style="fill:#666;fill-rule:nonzero;"/></g><g transform="matrix(50,0,0,50,421.419,348.864)"><path d="M0.205,0.11l-0,-0.94l0.245,0l0,0.08l-0.155,0l-0,0.78l0.155,0l-0,0.08l-0.245,0Z" style="fill:#666;fill-rule:nonzero;"/></g><g transform="matrix(50,0,0,50,211.419,415.531)"><path d="M0.365,-0.43l-0.012,-0.21l0,-0.09l0.097,0l0,0.09l-0.011,0.21l-0.074,0Zm-0.203,0l-0.012,-0.21l0,-0.09l0.097,0l0,0.09l-0.011,0.21l-0.074,0Z" style="fill:#089700;fill-rule:nonzero;"/></g><g transform="matrix(50,0,0,50,241.419,415.531)"><path d="M0.09,-0l0,-0.73l0.12,0l0.223,0.625c-0.001,-0.017 -0.003,-0.037 -0.005,-0.062c-0.001,-0.024 -0.003,-0.05 -0.004,-0.077c-0.001,-0.027 -0.001,-0.052 -0.001,-0.076l0,-0.41l0.087,0l0,0.73l-0.12,-0l-0.222,-0.625c0.001,0.016 0.003,0.036 0.004,0.061c0.001,0.024 0.002,0.05 0.003,0.077c0.001,0.027 0.002,0.052 0.002,0.077l-0,0.41l-0.087,-0Z" style="fill:#089700;fill-rule:nonzero;"/></g><g transform="matrix(50,0,0,50,271.419,415.531)"><path d="M0.252,0.01c-0.058,-0 -0.104,-0.015 -0.137,-0.045c-0.033,-0.029 -0.05,-0.069 -0.05,-0.12c0,-0.051 0.017,-0.092 0.05,-0.121c0.033,-0.029 0.078,-0.044 0.135,-0.044l0.17,0l-0,-0.055c-0,-0.033 -0.01,-0.059 -0.031,-0.078c-0.02,-0.019 -0.049,-0.028 -0.086,-0.028c-0.033,0 -0.06,0.007 -0.081,0.021c-0.021,0.013 -0.034,0.032 -0.039,0.055l-0.09,0c0.006,-0.047 0.028,-0.085 0.067,-0.113c0.039,-0.028 0.087,-0.042 0.145,-0.042c0.063,0 0.113,0.016 0.15,0.049c0.037,0.033 0.055,0.077 0.055,0.133l0,0.378l-0.088,-0l-0,-0.105l-0.001,0c-0.004,0.035 -0.021,0.063 -0.052,0.084c-0.03,0.021 -0.069,0.031 -0.117,0.031Zm0.022,-0.071c0.043,0 0.078,-0.011 0.105,-0.032c0.027,-0.021 0.041,-0.049 0.041,-0.082l-0,-0.078l-0.168,0c-0.03,0 -0.054,0.008 -0.071,0.025c-0.017,0.017 -0.026,0.039 -0.026,0.068c0,0.031 0.011,0.055 0.032,0.073c0.02,0.017 0.05,0.026 0.087,0.026Z" style="fill:#089700;fill-rule:nonzero;"/></g><g transform="matrix(50,0,0,50,301.419,415.531)"><path d="M0.066,-0l0,-0.55l0.079,0l-0,0.066l0.006,0c0.004,-0.023 0.014,-0.042 0.029,-0.055c0.016,-0.014 0.036,-0.021 0.06,-0.021c0.047,0 0.077,0.025 0.09,0.076l0.004,0c0.004,-0.023 0.014,-0.042 0.03,-0.055c0.017,-0.014 0.037,-0.021 0.061,-0.021c0.035,0 0.062,0.013 0.08,0.039c0.019,0.026 0.029,0.06 0.029,0.103l0,0.418l-0.083,0l0,-0.419c0,-0.023 -0.005,-0.04 -0.015,-0.053c-0.009,-0.013 -0.023,-0.019 -0.042,-0.019c-0.018,0 -0.032,0.006 -0.043,0.019c-0.01,0.012 -0.015,0.029 -0.015,0.052l0,0.42l-0.072,0l0,-0.419c0,-0.023 -0.005,-0.041 -0.016,-0.053c-0.01,-0.013 -0.024,-0.019 -0.043,-0.019c-0.019,0 -0.033,0.006 -0.042,0.019c-0.009,0.012 -0.014,0.029 -0.014,0.052l0,0.42l-0.083,0Z" style="fill:#089700;fill-rule:nonzero;"/></g><g transform="matrix(50,0,0,50,331.419,415.531)"><path d="M0.3,0.01c-0.043,-0 -0.081,-0.009 -0.113,-0.026c-0.033,-0.017 -0.058,-0.042 -0.076,-0.074c-0.017,-0.031 -0.026,-0.068 -0.026,-0.11l0,-0.15c0,-0.043 0.009,-0.08 0.027,-0.111c0.017,-0.031 0.042,-0.056 0.075,-0.073c0.032,-0.017 0.07,-0.026 0.113,-0.026c0.043,-0 0.081,0.009 0.113,0.026c0.033,0.017 0.058,0.042 0.076,0.073c0.017,0.031 0.026,0.068 0.026,0.111l0,0.097l-0.342,-0l0,0.053c0,0.043 0.011,0.076 0.033,0.099c0.022,0.023 0.053,0.035 0.094,0.035c0.035,-0 0.063,-0.006 0.084,-0.019c0.021,-0.012 0.034,-0.03 0.039,-0.055l0.09,-0c-0.006,0.046 -0.029,0.082 -0.068,0.109c-0.039,0.027 -0.087,0.041 -0.145,0.041Zm-0.127,-0.331l0.254,-0l-0,-0.029c-0,-0.043 -0.011,-0.077 -0.033,-0.1c-0.021,-0.023 -0.053,-0.035 -0.094,-0.035c-0.041,0 -0.072,0.012 -0.094,0.035c-0.022,0.023 -0.033,0.057 -0.033,0.1l-0,0.029Z" style="fill:#089700;fill-rule:nonzero;"/></g><g transform="matrix(50,0,0,50,391.419,415.531)"><path d="M0.485,0.12c-0.095,-0.023 -0.168,-0.069 -0.221,-0.138c-0.053,-0.069 -0.079,-0.153 -0.079,-0.252l0,-0.18c0,-0.065 0.012,-0.125 0.037,-0.177c0.024,-0.053 0.059,-0.098 0.104,-0.135c0.044,-0.037 0.098,-0.063 0.159,-0.078l0,0.085c-0.043,0.01 -0.08,0.029 -0.111,0.057c-0.031,0.029 -0.056,0.064 -0.073,0.106c-0.017,0.042 -0.026,0.089 -0.026,0.142l0,0.18c0,0.051 0.009,0.098 0.026,0.14c0.017,0.042 0.041,0.077 0.073,0.104c0.031,0.028 0.068,0.047 0.111,0.057l0,0.089Z" style="fill:#089700;fill-rule:nonzero;"/></g><g transform="matrix(50,0,0,50,421.419,415.531)"><path d="M0.09,-0l0,-0.082l0.198,0l-0,-0.573l-0.198,0.148l-0,-0.1l0.165,-0.123l0.123,0l0,0.648l0.162,-0l0,0.082l-0.45,-0Z" style="fill:#089700;fill-rule:nonzero;"/></g><g transform="matrix(50,0,0,50,451.419,415.531)"><path d="M0.075,0.11l0.355,-0.94l0.095,0l-0.355,0.94l-0.095,0Z" style="fill:#089700;fill-rule:nonzero;"/></g><g transform="matrix(50,0,0,50,481.419,415.531)"><path d="M0.092,-0l0,-0.089l0.223,-0.24c0.038,-0.041 0.066,-0.077 0.083,-0.109c0.017,-0.031 0.026,-0.062 0.026,-0.091c-0,-0.041 -0.011,-0.073 -0.034,-0.096c-0.022,-0.023 -0.052,-0.035 -0.091,-0.035c-0.043,-0 -0.076,0.012 -0.101,0.036c-0.024,0.024 -0.036,0.057 -0.036,0.099l-0.09,-0c0.002,-0.066 0.023,-0.118 0.064,-0.157c0.041,-0.039 0.096,-0.058 0.163,-0.058c0.066,0 0.118,0.019 0.157,0.056c0.039,0.038 0.058,0.089 0.058,0.154c-0,0.041 -0.011,0.082 -0.033,0.123c-0.022,0.041 -0.058,0.087 -0.108,0.139l-0.178,0.186l0.331,-0l-0,0.082l-0.434,-0Z" style="fill:#089700;fill-rule:nonzero;"/></g><g transform="matrix(50,0,0,50,511.419,415.531)"><path d="M0.115,0.12l0,-0.089c0.043,-0.01 0.081,-0.029 0.112,-0.056c0.031,-0.028 0.055,-0.063 0.072,-0.105c0.017,-0.042 0.026,-0.089 0.026,-0.14l-0,-0.18c-0,-0.053 -0.009,-0.1 -0.026,-0.142c-0.017,-0.042 -0.042,-0.077 -0.073,-0.105c-0.031,-0.029 -0.068,-0.048 -0.111,-0.058l-0,-0.085c0.062,0.015 0.115,0.041 0.16,0.078c0.045,0.037 0.079,0.082 0.103,0.135c0.025,0.053 0.037,0.112 0.037,0.177l0,0.18c0,0.099 -0.026,0.183 -0.079,0.252c-0.053,0.069 -0.126,0.115 -0.221,0.138Z" style="fill:#089700;fill-rule:nonzero;"/></g><g transform="matrix(50,0,0,50,541.419,415.531)"><path d="M0.365,-0.43l-0.012,-0.21l0,-0.09l0.097,0l0,0.09l-0.011,0.21l-0.074,0Zm-0.203,0l-0.012,-0.21l0,-0.09l0.097,0l0,0.09l-0.011,0.21l-0.074,0Z" style="fill:#089700;fill-rule:nonzero;"/></g><g transform="matrix(50,0,0,50,571.419,415.531)"><path d="M0.165,0.16l0.08,-0.311l0.13,0l-0.13,0.311l-0.08,0Z" style="fill:#666;fill-rule:nonzero;"/></g><g transform="matrix(50,0,0,50,211.419,482.197)"><path d="M0.365,-0.43l-0.012,-0.21l0,-0.09l0.097,0l0,0.09l-0.011,0.21l-0.074,0Zm-0.203,0l-0.012,-0.21l0,-0.09l0.097,0l0,0.09l-0.011,0.21l-0.074,0Z" style="fill:#089700;fill-rule:nonzero;"/></g><g transform="matrix(50,0,0,50,241.419,482.197)"><path d="M0.05,-0l0.19,-0.73l0.121,0l0.189,0.73l-0.091,-0l-0.048,-0.194l-0.221,0l-0.048,0.194l-0.092,-0Zm0.158,-0.27l0.184,0l-0.056,-0.225c-0.011,-0.043 -0.019,-0.078 -0.025,-0.107c-0.006,-0.029 -0.01,-0.047 -0.011,-0.056c-0.001,0.009 -0.005,0.027 -0.011,0.056c-0.006,0.029 -0.014,0.064 -0.025,0.106l-0.056,0.226Z" style="fill:#089700;fill-rule:nonzero;"/></g><g transform="matrix(50,0,0,50,271.419,482.197)"><path d="M0.268,0.01c-0.055,-0 -0.099,-0.018 -0.133,-0.055c-0.033,-0.037 -0.05,-0.086 -0.05,-0.149l0,-0.161c0,-0.063 0.017,-0.113 0.05,-0.15c0.033,-0.037 0.078,-0.055 0.133,-0.055c0.041,0 0.075,0.01 0.102,0.031c0.027,0.021 0.042,0.049 0.047,0.084l0.003,0l-0.002,-0.125l0,-0.16l0.09,0l0,0.73l-0.09,0l-0,-0.105l-0.001,0c-0.005,0.036 -0.02,0.064 -0.047,0.085c-0.027,0.02 -0.061,0.03 -0.102,0.03Zm0.03,-0.078c0.037,0 0.067,-0.012 0.088,-0.035c0.021,-0.023 0.032,-0.056 0.032,-0.097l-0,-0.15c-0,-0.041 -0.011,-0.074 -0.032,-0.097c-0.021,-0.023 -0.051,-0.035 -0.088,-0.035c-0.038,0 -0.068,0.011 -0.09,0.034c-0.022,0.023 -0.033,0.055 -0.033,0.098l-0,0.15c-0,0.043 0.011,0.075 0.033,0.098c0.022,0.023 0.052,0.034 0.09,0.034Z" style="fill:#089700;fill-rule:nonzero;"/></g><g transform="matrix(50,0,0,50,301.419,482.197)"><path d="M0.268,0.01c-0.055,-0 -0.099,-0.018 -0.133,-0.055c-0.033,-0.037 -0.05,-0.086 -0.05,-0.149l0,-0.161c0,-0.063 0.017,-0.113 0.05,-0.15c0.033,-0.037 0.078,-0.055 0.133,-0.055c0.041,0 0.075,0.01 0.102,0.031c0.027,0.021 0.042,0.049 0.047,0.084l0.003,0l-0.002,-0.125l0,-0.16l0.09,0l0,0.73l-0.09,0l-0,-0.105l-0.001,0c-0.005,0.036 -0.02,0.064 -0.047,0.085c-0.027,0.02 -0.061,0.03 -0.102,0.03Zm0.03,-0.078c0.037,0 0.067,-0.012 0.088,-0.035c0.021,-0.023 0.032,-0.056 0.032,-0.097l-0,-0.15c-0,-0.041 -0.011,-0.074 -0.032,-0.097c-0.021,-0.023 -0.051,-0.035 -0.088,-0.035c-0.038,0 -0.068,0.011 -0.09,0.034c-0.022,0.023 -0.033,0.055 -0.033,0.098l-0,0.15c-0,0.043 0.011,0.075 0.033,0.098c0.022,0.023 0.052,0.034 0.09,0.034Z" style="fill:#089700;fill-rule:nonzero;"/></g><g transform="matrix(50,0,0,50,331.419,482.197)"><path d="M0.111,-0l0,-0.55l0.088,0l0,0.098c0.018,-0.072 0.066,-0.108 0.145,-0.108c0.058,0 0.104,0.018 0.139,0.055c0.034,0.036 0.051,0.085 0.051,0.147l0,0.033l-0.09,-0l-0,-0.025c-0,-0.043 -0.011,-0.077 -0.032,-0.1c-0.021,-0.023 -0.05,-0.034 -0.089,-0.034c-0.038,0 -0.068,0.012 -0.09,0.035c-0.021,0.023 -0.032,0.056 -0.032,0.099l-0,0.35l-0.09,-0Z" style="fill:#089700;fill-rule:nonzero;"/></g><g transform="matrix(50,0,0,50,361.419,482.197)"><path d="M0.3,0.01c-0.043,-0 -0.081,-0.009 -0.113,-0.026c-0.033,-0.017 -0.058,-0.042 -0.076,-0.074c-0.017,-0.031 -0.026,-0.068 -0.026,-0.11l0,-0.15c0,-0.043 0.009,-0.08 0.027,-0.111c0.017,-0.031 0.042,-0.056 0.075,-0.073c0.032,-0.017 0.07,-0.026 0.113,-0.026c0.043,-0 0.081,0.009 0.113,0.026c0.033,0.017 0.058,0.042 0.076,0.073c0.017,0.031 0.026,0.068 0.026,0.111l0,0.097l-0.342,-0l0,0.053c0,0.043 0.011,0.076 0.033,0.099c0.022,0.023 0.053,0.035 0.094,0.035c0.035,-0 0.063,-0.006 0.084,-0.019c0.021,-0.012 0.034,-0.03 0.039,-0.055l0.09,-0c-0.006,0.046 -0.029,0.082 -0.068,0.109c-0.039,0.027 -0.087,0.041 -0.145,0.041Zm-0.127,-0.331l0.254,-0l-0,-0.029c-0,-0.043 -0.011,-0.077 -0.033,-0.1c-0.021,-0.023 -0.053,-0.035 -0.094,-0.035c-0.041,0 -0.072,0.012 -0.094,0.035c-0.022,0.023 -0.033,0.057 -0.033,0.1l-0,0.029Z" style="fill:#089700;fill-rule:nonzero;"/></g><g transform="matrix(50,0,0,50,391.419,482.197)"><path d="M0.283,0.008c-0.057,-0 -0.102,-0.013 -0.135,-0.039c-0.033,-0.025 -0.053,-0.06 -0.058,-0.104l0.09,0c0.004,0.019 0.015,0.035 0.032,0.046c0.018,0.011 0.042,0.017 0.071,0.017l0.042,0c0.035,0 0.062,-0.007 0.079,-0.021c0.017,-0.015 0.026,-0.034 0.026,-0.058c-0,-0.045 -0.031,-0.073 -0.093,-0.083l-0.074,-0.012c-0.054,-0.009 -0.094,-0.026 -0.121,-0.05c-0.026,-0.025 -0.039,-0.06 -0.039,-0.107c-0,-0.049 0.016,-0.087 0.047,-0.114c0.031,-0.027 0.078,-0.041 0.141,-0.041l0.038,0c0.053,0 0.095,0.012 0.127,0.037c0.032,0.025 0.051,0.058 0.058,0.1l-0.09,0c-0.004,-0.017 -0.014,-0.031 -0.03,-0.041c-0.016,-0.011 -0.038,-0.016 -0.065,-0.016l-0.038,0c-0.034,0 -0.059,0.006 -0.075,0.019c-0.015,0.013 -0.023,0.032 -0.023,0.057c-0,0.023 0.007,0.039 0.02,0.05c0.013,0.011 0.034,0.018 0.063,0.023l0.074,0.012c0.059,0.009 0.102,0.027 0.129,0.052c0.027,0.025 0.041,0.062 0.041,0.11c-0,0.051 -0.016,0.091 -0.049,0.12c-0.032,0.029 -0.081,0.043 -0.146,0.043l-0.042,0Z" style="fill:#089700;fill-rule:nonzero;"/></g><g transform="matrix(50,0,0,50,421.419,482.197)"><path d="M0.283,0.008c-0.057,-0 -0.102,-0.013 -0.135,-0.039c-0.033,-0.025 -0.053,-0.06 -0.058,-0.104l0.09,0c0.004,0.019 0.015,0.035 0.032,0.046c0.018,0.011 0.042,0.017 0.071,0.017l0.042,0c0.035,0 0.062,-0.007 0.079,-0.021c0.017,-0.015 0.026,-0.034 0.026,-0.058c-0,-0.045 -0.031,-0.073 -0.093,-0.083l-0.074,-0.012c-0.054,-0.009 -0.094,-0.026 -0.121,-0.05c-0.026,-0.025 -0.039,-0.06 -0.039,-0.107c-0,-0.049 0.016,-0.087 0.047,-0.114c0.031,-0.027 0.078,-0.041 0.141,-0.041l0.038,0c0.053,0 0.095,0.012 0.127,0.037c0.032,0.025 0.051,0.058 0.058,0.1l-0.09,0c-0.004,-0.017 -0.014,-0.031 -0.03,-0.041c-0.016,-0.011 -0.038,-0.016 -0.065,-0.016l-0.038,0c-0.034,0 -0.059,0.006 -0.075,0.019c-0.015,0.013 -0.023,0.032 -0.023,0.057c-0,0.023 0.007,0.039 0.02,0.05c0.013,0.011 0.034,0.018 0.063,0.023l0.074,0.012c0.059,0.009 0.102,0.027 0.129,0.052c0.027,0.025 0.041,0.062 0.041,0.11c-0,0.051 -0.016,0.091 -0.049,0.12c-0.032,0.029 -0.081,0.043 -0.146,0.043l-0.042,0Z" style="fill:#089700;fill-rule:nonzero;"/></g><g transform="matrix(50,0,0,50,481.419,482.197)"><path d="M0.485,0.12c-0.095,-0.023 -0.168,-0.069 -0.221,-0.138c-0.053,-0.069 -0.079,-0.153 -0.079,-0.252l0,-0.18c0,-0.065 0.012,-0.125 0.037,-0.177c0.024,-0.053 0.059,-0.098 0.104,-0.135c0.044,-0.037 0.098,-0.063 0.159,-0.078l0,0.085c-0.043,0.01 -0.08,0.029 -0.111,0.057c-0.031,0.029 -0.056,0.064 -0.073,0.106c-0.017,0.042 -0.026,0.089 -0.026,0.142l0,0.18c0,0.051 0.009,0.098 0.026,0.14c0.017,0.042 0.041,0.077 0.073,0.104c0.031,0.028 0.068,0.047 0.111,0.057l0,0.089Z" style="fill:#089700;fill-rule:nonzero;"/></g><g transform="matrix(50,0,0,50,511.419,482.197)"><path d="M0.092,-0l0,-0.089l0.223,-0.24c0.038,-0.041 0.066,-0.077 0.083,-0.109c0.017,-0.031 0.026,-0.062 0.026,-0.091c-0,-0.041 -0.011,-0.073 -0.034,-0.096c-0.022,-0.023 -0.052,-0.035 -0.091,-0.035c-0.043,-0 -0.076,0.012 -0.101,0.036c-0.024,0.024 -0.036,0.057 -0.036,0.099l-0.09,-0c0.002,-0.066 0.023,-0.118 0.064,-0.157c0.041,-0.039 0.096,-0.058 0.163,-0.058c0.066,0 0.118,0.019 0.157,0.056c0.039,0.038 0.058,0.089 0.058,0.154c-0,0.041 -0.011,0.082 -0.033,0.123c-0.022,0.041 -0.058,0.087 -0.108,0.139l-0.178,0.186l0.331,-0l-0,0.082l-0.434,-0Z" style="fill:#089700;fill-rule:nonzero;"/></g><g transform="matrix(50,0,0,50,541.419,482.197)"><path d="M0.075,0.11l0.355,-0.94l0.095,0l-0.355,0.94l-0.095,0Z" style="fill:#089700;fill-rule:nonzero;"/></g><g transform="matrix(50,0,0,50,571.419,482.197)"><path d="M0.092,-0l0,-0.089l0.223,-0.24c0.038,-0.041 0.066,-0.077 0.083,-0.109c0.017,-0.031 0.026,-0.062 0.026,-0.091c-0,-0.041 -0.011,-0.073 -0.034,-0.096c-0.022,-0.023 -0.052,-0.035 -0.091,-0.035c-0.043,-0 -0.076,0.012 -0.101,0.036c-0.024,0.024 -0.036,0.057 -0.036,0.099l-0.09,-0c0.002,-0.066 0.023,-0.118 0.064,-0.157c0.041,-0.039 0.096,-0.058 0.163,-0.058c0.066,0 0.118,0.019 0.157,0.056c0.039,0.038 0.058,0.089 0.058,0.154c-0,0.041 -0.011,0.082 -0.033,0.123c-0.022,0.041 -0.058,0.087 -0.108,0.139l-0.178,0.186l0.331,-0l-0,0.082l-0.434,-0Z" style="fill:#089700;fill-rule:nonzero;"/></g><g transform="matrix(50,0,0,50,601.419,482.197)"><path d="M0.115,0.12l0,-0.089c0.043,-0.01 0.081,-0.029 0.112,-0.056c0.031,-0.028 0.055,-0.063 0.072,-0.105c0.017,-0.042 0.026,-0.089 0.026,-0.14l-0,-0.18c-0,-0.053 -0.009,-0.1 -0.026,-0.142c-0.017,-0.042 -0.042,-0.077 -0.073,-0.105c-0.031,-0.029 -0.068,-0.048 -0.111,-0.058l-0,-0.085c0.062,0.015 0.115,0.041 0.16,0.078c0.045,0.037 0.079,0.082 0.103,0.135c0.025,0.053 0.037,0.112 0.037,0.177l0,0.18c0,0.099 -0.026,0.183 -0.079,0.252c-0.053,0.069 -0.126,0.115 -0.221,0.138Z" style="fill:#089700;fill-rule:nonzero;"/></g><g transform="matrix(50,0,0,50,631.419,482.197)"><path d="M0.365,-0.43l-0.012,-0.21l0,-0.09l0.097,0l0,0.09l-0.011,0.21l-0.074,0Zm-0.203,0l-0.012,-0.21l0,-0.09l0.097,0l0,0.09l-0.011,0.21l-0.074,0Z" style="fill:#089700;fill-rule:nonzero;"/></g><g transform="matrix(50,0,0,50,151.419,548.864)"><path d="M0.15,0.11l0,-0.08l0.155,0l0,-0.78l-0.155,0l0,-0.08l0.245,0l0,0.94l-0.245,-0Z" style="fill:#666;fill-rule:nonzero;"/></g><g transform="matrix(50,0,0,50,91.4194,615.531)"><path d="M0.085,0.11l0,-0.08l0.045,0c0.031,-0 0.055,-0.007 0.072,-0.022c0.017,-0.014 0.024,-0.035 0.023,-0.064l-0.01,-0.164c-0.002,-0.038 0.006,-0.069 0.024,-0.094c0.018,-0.025 0.043,-0.04 0.076,-0.046c-0.033,-0.006 -0.059,-0.021 -0.077,-0.046c-0.017,-0.025 -0.025,-0.056 -0.023,-0.094l0.01,-0.164c0.001,-0.029 -0.006,-0.05 -0.023,-0.065c-0.017,-0.014 -0.041,-0.021 -0.072,-0.021l-0.045,0l0,-0.08l0.045,0c0.059,0 0.106,0.015 0.14,0.044c0.033,0.029 0.048,0.069 0.045,0.122l-0.01,0.164c-0.002,0.035 0.003,0.061 0.016,0.077c0.013,0.015 0.041,0.023 0.084,0.023l0.11,-0l0,0.08l-0.11,-0c-0.043,-0 -0.071,0.008 -0.084,0.023c-0.013,0.016 -0.018,0.042 -0.016,0.077l0.01,0.164c0.003,0.053 -0.012,0.093 -0.045,0.122c-0.034,0.029 -0.081,0.044 -0.14,0.044l-0.045,-0Z" style="fill:#666;fill-rule:nonzero;"/></g></g><g transform="matrix(1,0,0,1,-351.643,-164.795)"><g transform="matrix(66.6667,0,0,66.6667,1023.91,671.165)"><path d="M0.36,-0c-0.047,-0 -0.084,-0.013 -0.11,-0.038c-0.027,-0.025 -0.04,-0.061 -0.04,-0.107l0,-0.323l-0.155,-0l0,-0.082l0.155,-0l0,-0.155l0.09,0l0,0.155l0.22,-0l0,0.082l-0.22,-0l-0,0.323c-0,0.042 0.02,0.063 0.06,0.063l0.15,-0l0,0.082l-0.15,-0Z" style="fill:#5d93ff;fill-rule:nonzero;"/></g><g transform="matrix(66.6667,0,0,66.6667,1063.91,671.165)"><path d="M0.3,0.01c-0.025,-0 -0.045,-0.007 -0.061,-0.022c-0.014,-0.015 -0.022,-0.034 -0.022,-0.059c0,-0.026 0.008,-0.047 0.022,-0.062c0.016,-0.015 0.036,-0.023 0.061,-0.023c0.025,0 0.045,0.008 0.061,0.023c0.015,0.015 0.022,0.036 0.022,0.062c0,0.025 -0.008,0.044 -0.023,0.059c-0.015,0.015 -0.035,0.022 -0.06,0.022Z" style="fill:#666;fill-rule:nonzero;"/></g><g transform="matrix(66.6667,0,0,66.6667,1103.91,671.165)"><path d="M0.123,-0l-0.088,-0.55l0.08,0l0.055,0.39c0.002,0.015 0.004,0.031 0.006,0.048c0.003,0.017 0.005,0.031 0.006,0.042c0.001,-0.011 0.003,-0.025 0.006,-0.042c0.003,-0.017 0.006,-0.033 0.008,-0.048l0.061,-0.39l0.086,0l0.061,0.39c0.002,0.015 0.004,0.031 0.007,0.048c0.003,0.017 0.006,0.031 0.007,0.042c0.001,-0.011 0.003,-0.025 0.006,-0.042c0.003,-0.017 0.006,-0.033 0.008,-0.048l0.057,-0.39l0.076,0l-0.092,0.55l-0.099,-0l-0.059,-0.38c-0.003,-0.019 -0.006,-0.037 -0.009,-0.056c-0.003,-0.019 -0.006,-0.033 -0.007,-0.044c-0.001,0.011 -0.003,0.025 -0.006,0.044c-0.003,0.019 -0.006,0.037 -0.009,0.056l-0.062,0.38l-0.099,-0Z" style="fill:#ff6000;fill-rule:nonzero;"/></g><g transform="matrix(66.6667,0,0,66.6667,1143.91,671.165)"><path d="M0.3,0.01c-0.043,-0 -0.081,-0.009 -0.113,-0.026c-0.033,-0.017 -0.058,-0.042 -0.076,-0.074c-0.017,-0.031 -0.026,-0.068 -0.026,-0.11l0,-0.15c0,-0.043 0.009,-0.08 0.027,-0.111c0.017,-0.031 0.042,-0.056 0.075,-0.073c0.032,-0.017 0.07,-0.026 0.113,-0.026c0.043,-0 0.081,0.009 0.113,0.026c0.033,0.017 0.058,0.042 0.076,0.073c0.017,0.031 0.026,0.068 0.026,0.111l0,0.097l-0.342,-0l0,0.053c0,0.043 0.011,0.076 0.033,0.099c0.022,0.023 0.053,0.035 0.094,0.035c0.035,-0 0.063,-0.006 0.084,-0.019c0.021,-0.012 0.034,-0.03 0.039,-0.055l0.09,-0c-0.006,0.046 -0.029,0.082 -0.068,0.109c-0.039,0.027 -0.087,0.041 -0.145,0.041Zm-0.127,-0.331l0.254,-0l-0,-0.029c-0,-0.043 -0.011,-0.077 -0.033,-0.1c-0.021,-0.023 -0.053,-0.035 -0.094,-0.035c-0.041,0 -0.072,0.012 -0.094,0.035c-0.022,0.023 -0.033,0.057 -0.033,0.1l-0,0.029Z" style="fill:#ff6000;fill-rule:nonzero;"/></g><g transform="matrix(66.6667,0,0,66.6667,1183.91,671.165)"><path d="M0.38,-0c-0.049,-0 -0.088,-0.014 -0.116,-0.043c-0.03,-0.028 -0.044,-0.065 -0.044,-0.112l-0,-0.493l-0.19,0l-0,-0.082l0.28,0l-0,0.575c-0,0.023 0.006,0.04 0.019,0.053c0.013,0.013 0.03,0.02 0.051,0.02l0.17,-0l0,0.082l-0.17,-0Z" style="fill:#ff6000;fill-rule:nonzero;"/></g><g transform="matrix(66.6667,0,0,66.6667,1223.91,671.165)"><path d="M0.304,0.01c-0.067,-0 -0.12,-0.019 -0.16,-0.056c-0.039,-0.037 -0.059,-0.089 -0.059,-0.154l0,-0.15c0,-0.065 0.02,-0.117 0.059,-0.154c0.04,-0.037 0.093,-0.056 0.16,-0.056c0.063,0 0.114,0.017 0.153,0.051c0.039,0.034 0.059,0.08 0.061,0.139l-0.09,0c-0.002,-0.035 -0.014,-0.063 -0.036,-0.082c-0.021,-0.018 -0.051,-0.028 -0.088,-0.028c-0.039,0 -0.071,0.011 -0.094,0.034c-0.023,0.022 -0.035,0.054 -0.035,0.095l-0,0.151c-0,0.041 0.012,0.073 0.035,0.096c0.023,0.023 0.055,0.034 0.094,0.034c0.037,0 0.067,-0.01 0.088,-0.029c0.022,-0.019 0.034,-0.046 0.036,-0.081l0.09,0c-0.002,0.059 -0.022,0.105 -0.061,0.139c-0.039,0.034 -0.09,0.051 -0.153,0.051Z" style="fill:#ff6000;fill-rule:nonzero;"/></g><g transform="matrix(66.6667,0,0,66.6667,1263.91,671.165)"><path d="M0.3,0.008c-0.067,-0 -0.119,-0.019 -0.158,-0.057c-0.038,-0.037 -0.057,-0.088 -0.057,-0.153l0,-0.146c0,-0.065 0.019,-0.117 0.057,-0.154c0.039,-0.037 0.091,-0.056 0.158,-0.056c0.067,0 0.119,0.019 0.158,0.056c0.038,0.037 0.057,0.088 0.057,0.153l0,0.147c0,0.065 -0.019,0.116 -0.057,0.153c-0.039,0.038 -0.091,0.057 -0.158,0.057Zm-0,-0.08c0.039,-0 0.07,-0.011 0.092,-0.033c0.022,-0.022 0.033,-0.054 0.033,-0.097l-0,-0.146c-0,-0.043 -0.011,-0.075 -0.033,-0.097c-0.022,-0.022 -0.053,-0.033 -0.092,-0.033c-0.039,0 -0.069,0.011 -0.092,0.033c-0.022,0.022 -0.033,0.054 -0.033,0.097l-0,0.146c-0,0.043 0.011,0.075 0.033,0.097c0.023,0.022 0.053,0.033 0.092,0.033Z" style="fill:#ff6000;fill-rule:nonzero;"/></g><g transform="matrix(66.6667,0,0,66.6667,1303.91,671.165)"><path d="M0.066,-0l0,-0.55l0.079,0l-0,0.066l0.006,0c0.004,-0.023 0.014,-0.042 0.029,-0.055c0.016,-0.014 0.036,-0.021 0.06,-0.021c0.047,0 0.077,0.025 0.09,0.076l0.004,0c0.004,-0.023 0.014,-0.042 0.03,-0.055c0.017,-0.014 0.037,-0.021 0.061,-0.021c0.035,0 0.062,0.013 0.08,0.039c0.019,0.026 0.029,0.06 0.029,0.103l0,0.418l-0.083,0l0,-0.419c0,-0.023 -0.005,-0.04 -0.015,-0.053c-0.009,-0.013 -0.023,-0.019 -0.042,-0.019c-0.018,0 -0.032,0.006 -0.043,0.019c-0.01,0.012 -0.015,0.029 -0.015,0.052l0,0.42l-0.072,0l0,-0.419c0,-0.023 -0.005,-0.041 -0.016,-0.053c-0.01,-0.013 -0.024,-0.019 -0.043,-0.019c-0.019,0 -0.033,0.006 -0.042,0.019c-0.009,0.012 -0.014,0.029 -0.014,0.052l0,0.42l-0.083,0Z" style="fill:#ff6000;fill-rule:nonzero;"/></g><g transform="matrix(66.6667,0,0,66.6667,1343.91,671.165)"><path d="M0.3,0.01c-0.043,-0 -0.081,-0.009 -0.113,-0.026c-0.033,-0.017 -0.058,-0.042 -0.076,-0.074c-0.017,-0.031 -0.026,-0.068 -0.026,-0.11l0,-0.15c0,-0.043 0.009,-0.08 0.027,-0.111c0.017,-0.031 0.042,-0.056 0.075,-0.073c0.032,-0.017 0.07,-0.026 0.113,-0.026c0.043,-0 0.081,0.009 0.113,0.026c0.033,0.017 0.058,0.042 0.076,0.073c0.017,0.031 0.026,0.068 0.026,0.111l0,0.097l-0.342,-0l0,0.053c0,0.043 0.011,0.076 0.033,0.099c0.022,0.023 0.053,0.035 0.094,0.035c0.035,-0 0.063,-0.006 0.084,-0.019c0.021,-0.012 0.034,-0.03 0.039,-0.055l0.09,-0c-0.006,0.046 -0.029,0.082 -0.068,0.109c-0.039,0.027 -0.087,0.041 -0.145,0.041Zm-0.127,-0.331l0.254,-0l-0,-0.029c-0,-0.043 -0.011,-0.077 -0.033,-0.1c-0.021,-0.023 -0.053,-0.035 -0.094,-0.035c-0.041,0 -0.072,0.012 -0.094,0.035c-0.022,0.023 -0.033,0.057 -0.033,0.1l-0,0.029Z" style="fill:#ff6000;fill-rule:nonzero;"/></g><g transform="matrix(66.6667,0,0,66.6667,1383.91,671.165)"><path d="M0.3,0.01c-0.025,-0 -0.045,-0.007 -0.061,-0.022c-0.014,-0.015 -0.022,-0.034 -0.022,-0.059c0,-0.026 0.008,-0.047 0.022,-0.062c0.016,-0.015 0.036,-0.023 0.061,-0.023c0.025,0 0.045,0.008 0.061,0.023c0.015,0.015 0.022,0.036 0.022,0.062c0,0.025 -0.008,0.044 -0.023,0.059c-0.015,0.015 -0.035,0.022 -0.06,0.022Z" style="fill:#666;fill-rule:nonzero;"/></g><g transform="matrix(66.6667,0,0,66.6667,1423.91,671.165)"><path d="M0.36,-0c-0.047,-0 -0.084,-0.013 -0.11,-0.038c-0.027,-0.025 -0.04,-0.061 -0.04,-0.107l0,-0.323l-0.155,-0l0,-0.082l0.155,-0l0,-0.155l0.09,0l0,0.155l0.22,-0l0,0.082l-0.22,-0l-0,0.323c-0,0.042 0.02,0.063 0.06,0.063l0.15,-0l0,0.082l-0.15,-0Z" style="fill:#ff6000;fill-rule:nonzero;"/></g><g transform="matrix(66.6667,0,0,66.6667,1463.91,671.165)"><path d="M0.085,-0l0,-0.082l0.195,0l0,-0.386l-0.17,0l-0,-0.082l0.26,0l0,0.468l0.185,0l0,0.082l-0.47,0Zm0.23,-0.649c-0.022,0 -0.039,-0.006 -0.052,-0.017c-0.013,-0.011 -0.019,-0.027 -0.019,-0.046c0,-0.02 0.006,-0.036 0.019,-0.047c0.013,-0.012 0.03,-0.018 0.052,-0.018c0.022,0 0.039,0.006 0.052,0.018c0.013,0.011 0.019,0.027 0.019,0.047c0,0.019 -0.006,0.035 -0.019,0.046c-0.013,0.011 -0.03,0.017 -0.052,0.017Z" style="fill:#ff6000;fill-rule:nonzero;"/></g><g transform="matrix(66.6667,0,0,66.6667,1503.91,671.165)"><path d="M0.36,-0c-0.047,-0 -0.084,-0.013 -0.11,-0.038c-0.027,-0.025 -0.04,-0.061 -0.04,-0.107l0,-0.323l-0.155,-0l0,-0.082l0.155,-0l0,-0.155l0.09,0l0,0.155l0.22,-0l0,0.082l-0.22,-0l-0,0.323c-0,0.042 0.02,0.063 0.06,0.063l0.15,-0l0,0.082l-0.15,-0Z" style="fill:#ff6000;fill-rule:nonzero;"/></g><g transform="matrix(66.6667,0,0,66.6667,1543.91,671.165)"><path d="M0.38,-0c-0.049,-0 -0.088,-0.014 -0.116,-0.043c-0.03,-0.028 -0.044,-0.065 -0.044,-0.112l-0,-0.493l-0.19,0l-0,-0.082l0.28,0l-0,0.575c-0,0.023 0.006,0.04 0.019,0.053c0.013,0.013 0.03,0.02 0.051,0.02l0.17,-0l0,0.082l-0.17,-0Z" style="fill:#ff6000;fill-rule:nonzero;"/></g><g transform="matrix(66.6667,0,0,66.6667,1583.91,671.165)"><path d="M0.3,0.01c-0.043,-0 -0.081,-0.009 -0.113,-0.026c-0.033,-0.017 -0.058,-0.042 -0.076,-0.074c-0.017,-0.031 -0.026,-0.068 -0.026,-0.11l0,-0.15c0,-0.043 0.009,-0.08 0.027,-0.111c0.017,-0.031 0.042,-0.056 0.075,-0.073c0.032,-0.017 0.07,-0.026 0.113,-0.026c0.043,-0 0.081,0.009 0.113,0.026c0.033,0.017 0.058,0.042 0.076,0.073c0.017,0.031 0.026,0.068 0.026,0.111l0,0.097l-0.342,-0l0,0.053c0,0.043 0.011,0.076 0.033,0.099c0.022,0.023 0.053,0.035 0.094,0.035c0.035,-0 0.063,-0.006 0.084,-0.019c0.021,-0.012 0.034,-0.03 0.039,-0.055l0.09,-0c-0.006,0.046 -0.029,0.082 -0.068,0.109c-0.039,0.027 -0.087,0.041 -0.145,0.041Zm-0.127,-0.331l0.254,-0l-0,-0.029c-0,-0.043 -0.011,-0.077 -0.033,-0.1c-0.021,-0.023 -0.053,-0.035 -0.094,-0.035c-0.041,0 -0.072,0.012 -0.094,0.035c-0.022,0.023 -0.033,0.057 -0.033,0.1l-0,0.029Z" style="fill:#ff6000;fill-rule:nonzero;"/></g><g transform="matrix(66.6667,0,0,66.6667,1623.91,671.165)"><path d="M0.485,0.12c-0.095,-0.023 -0.168,-0.069 -0.221,-0.138c-0.053,-0.069 -0.079,-0.153 -0.079,-0.252l0,-0.18c0,-0.065 0.012,-0.125 0.037,-0.177c0.024,-0.053 0.059,-0.098 0.104,-0.135c0.044,-0.037 0.098,-0.063 0.159,-0.078l0,0.085c-0.043,0.01 -0.08,0.029 -0.111,0.057c-0.031,0.029 -0.056,0.064 -0.073,0.106c-0.017,0.042 -0.026,0.089 -0.026,0.142l0,0.18c0,0.051 0.009,0.098 0.026,0.14c0.017,0.042 0.041,0.077 0.073,0.104c0.031,0.028 0.068,0.047 0.111,0.057l0,0.089Z" style="fill:#666;fill-rule:nonzero;"/></g><g transform="matrix(66.6667,0,0,66.6667,1663.91,671.165)"><path d="M0.092,-0l0,-0.55l0.09,0l0,0.105l0.001,0c0.005,-0.037 0.02,-0.065 0.045,-0.085c0.025,-0.02 0.059,-0.03 0.101,-0.03c0.055,0 0.099,0.017 0.132,0.051c0.033,0.034 0.049,0.08 0.049,0.139l0,0.37l-0.09,-0l-0,-0.36c-0,-0.039 -0.011,-0.07 -0.032,-0.091c-0.021,-0.021 -0.049,-0.031 -0.085,-0.031c-0.037,0 -0.067,0.011 -0.089,0.034c-0.021,0.023 -0.032,0.055 -0.032,0.098l0,0.35l-0.09,-0Z" style="fill:#666;fill-rule:nonzero;"/></g><g transform="matrix(66.6667,0,0,66.6667,1703.91,671.165)"><path d="M0.252,0.01c-0.058,-0 -0.104,-0.015 -0.137,-0.045c-0.033,-0.029 -0.05,-0.069 -0.05,-0.12c0,-0.051 0.017,-0.092 0.05,-0.121c0.033,-0.029 0.078,-0.044 0.135,-0.044l0.17,0l-0,-0.055c-0,-0.033 -0.01,-0.059 -0.031,-0.078c-0.02,-0.019 -0.049,-0.028 -0.086,-0.028c-0.033,0 -0.06,0.007 -0.081,0.021c-0.021,0.013 -0.034,0.032 -0.039,0.055l-0.09,0c0.006,-0.047 0.028,-0.085 0.067,-0.113c0.039,-0.028 0.087,-0.042 0.145,-0.042c0.063,0 0.113,0.016 0.15,0.049c0.037,0.033 0.055,0.077 0.055,0.133l0,0.378l-0.088,-0l-0,-0.105l-0.001,0c-0.004,0.035 -0.021,0.063 -0.052,0.084c-0.03,0.021 -0.069,0.031 -0.117,0.031Zm0.022,-0.071c0.043,0 0.078,-0.011 0.105,-0.032c0.027,-0.021 0.041,-0.049 0.041,-0.082l-0,-0.078l-0.168,0c-0.03,0 -0.054,0.008 -0.071,0.025c-0.017,0.017 -0.026,0.039 -0.026,0.068c0,0.031 0.011,0.055 0.032,0.073c0.02,0.017 0.05,0.026 0.087,0.026Z" style="fill:#666;fill-rule:nonzero;"/></g><g transform="matrix(66.6667,0,0,66.6667,1743.91,671.165)"><path d="M0.066,-0l0,-0.55l0.079,0l-0,0.066l0.006,0c0.004,-0.023 0.014,-0.042 0.029,-0.055c0.016,-0.014 0.036,-0.021 0.06,-0.021c0.047,0 0.077,0.025 0.09,0.076l0.004,0c0.004,-0.023 0.014,-0.042 0.03,-0.055c0.017,-0.014 0.037,-0.021 0.061,-0.021c0.035,0 0.062,0.013 0.08,0.039c0.019,0.026 0.029,0.06 0.029,0.103l0,0.418l-0.083,0l0,-0.419c0,-0.023 -0.005,-0.04 -0.015,-0.053c-0.009,-0.013 -0.023,-0.019 -0.042,-0.019c-0.018,0 -0.032,0.006 -0.043,0.019c-0.01,0.012 -0.015,0.029 -0.015,0.052l0,0.42l-0.072,0l0,-0.419c0,-0.023 -0.005,-0.041 -0.016,-0.053c-0.01,-0.013 -0.024,-0.019 -0.043,-0.019c-0.019,0 -0.033,0.006 -0.042,0.019c-0.009,0.012 -0.014,0.029 -0.014,0.052l0,0.42l-0.083,0Z" style="fill:#666;fill-rule:nonzero;"/></g><g transform="matrix(66.6667,0,0,66.6667,1783.91,671.165)"><path d="M0.3,0.01c-0.043,-0 -0.081,-0.009 -0.113,-0.026c-0.033,-0.017 -0.058,-0.042 -0.076,-0.074c-0.017,-0.031 -0.026,-0.068 -0.026,-0.11l0,-0.15c0,-0.043 0.009,-0.08 0.027,-0.111c0.017,-0.031 0.042,-0.056 0.075,-0.073c0.032,-0.017 0.07,-0.026 0.113,-0.026c0.043,-0 0.081,0.009 0.113,0.026c0.033,0.017 0.058,0.042 0.076,0.073c0.017,0.031 0.026,0.068 0.026,0.111l0,0.097l-0.342,-0l0,0.053c0,0.043 0.011,0.076 0.033,0.099c0.022,0.023 0.053,0.035 0.094,0.035c0.035,-0 0.063,-0.006 0.084,-0.019c0.021,-0.012 0.034,-0.03 0.039,-0.055l0.09,-0c-0.006,0.046 -0.029,0.082 -0.068,0.109c-0.039,0.027 -0.087,0.041 -0.145,0.041Zm-0.127,-0.331l0.254,-0l-0,-0.029c-0,-0.043 -0.011,-0.077 -0.033,-0.1c-0.021,-0.023 -0.053,-0.035 -0.094,-0.035c-0.041,0 -0.072,0.012 -0.094,0.035c-0.022,0.023 -0.033,0.057 -0.033,0.1l-0,0.029Z" style="fill:#666;fill-rule:nonzero;"/></g><g transform="matrix(66.6667,0,0,66.6667,1823.91,671.165)"><path d="M0.3,-0.41c-0.025,0 -0.045,-0.007 -0.06,-0.02c-0.015,-0.014 -0.023,-0.032 -0.023,-0.055c0,-0.023 0.008,-0.041 0.023,-0.054c0.015,-0.014 0.035,-0.021 0.06,-0.021c0.025,0 0.045,0.007 0.061,0.021c0.015,0.013 0.022,0.031 0.022,0.054c0,0.023 -0.008,0.041 -0.023,0.055c-0.015,0.013 -0.035,0.02 -0.06,0.02Zm0,0.42c-0.025,-0 -0.045,-0.007 -0.06,-0.02c-0.015,-0.014 -0.023,-0.032 -0.023,-0.055c0,-0.023 0.008,-0.041 0.023,-0.054c0.015,-0.014 0.035,-0.021 0.06,-0.021c0.025,0 0.045,0.007 0.061,0.021c0.015,0.013 0.022,0.031 0.022,0.054c0,0.023 -0.008,0.041 -0.023,0.055c-0.015,0.013 -0.035,0.02 -0.06,0.02Z" style="fill:#666;fill-rule:nonzero;"/></g><g transform="matrix(66.6667,0,0,66.6667,1903.91,671.165)"><path d="M0.258,-0.43l-0.012,-0.15l0,-0.15l0.097,0l0,0.15l-0.011,0.15l-0.074,-0Z" style="fill:#089700;fill-rule:nonzero;"/></g><g transform="matrix(66.6667,0,0,66.6667,1943.91,671.165)"><path d="M0.255,-0l0,-0.648l-0.2,0l0,-0.082l0.49,0l0,0.082l-0.2,0l0,0.648l-0.09,-0Z" style="fill:#089700;fill-rule:nonzero;"/></g><g transform="matrix(66.6667,0,0,66.6667,1983.91,671.165)"><path d="M0.3,0.008c-0.067,-0 -0.119,-0.019 -0.158,-0.057c-0.038,-0.037 -0.057,-0.088 -0.057,-0.153l0,-0.146c0,-0.065 0.019,-0.117 0.057,-0.154c0.039,-0.037 0.091,-0.056 0.158,-0.056c0.067,0 0.119,0.019 0.158,0.056c0.038,0.037 0.057,0.088 0.057,0.153l0,0.147c0,0.065 -0.019,0.116 -0.057,0.153c-0.039,0.038 -0.091,0.057 -0.158,0.057Zm-0,-0.08c0.039,-0 0.07,-0.011 0.092,-0.033c0.022,-0.022 0.033,-0.054 0.033,-0.097l-0,-0.146c-0,-0.043 -0.011,-0.075 -0.033,-0.097c-0.022,-0.022 -0.053,-0.033 -0.092,-0.033c-0.039,0 -0.069,0.011 -0.092,0.033c-0.022,0.022 -0.033,0.054 -0.033,0.097l-0,0.146c-0,0.043 0.011,0.075 0.033,0.097c0.023,0.022 0.053,0.033 0.092,0.033Z" style="fill:#089700;fill-rule:nonzero;"/></g><g transform="matrix(66.6667,0,0,66.6667,2023.91,671.165)"><path d="M0.066,-0l0,-0.55l0.079,0l-0,0.066l0.006,0c0.004,-0.023 0.014,-0.042 0.029,-0.055c0.016,-0.014 0.036,-0.021 0.06,-0.021c0.047,0 0.077,0.025 0.09,0.076l0.004,0c0.004,-0.023 0.014,-0.042 0.03,-0.055c0.017,-0.014 0.037,-0.021 0.061,-0.021c0.035,0 0.062,0.013 0.08,0.039c0.019,0.026 0.029,0.06 0.029,0.103l0,0.418l-0.083,0l0,-0.419c0,-0.023 -0.005,-0.04 -0.015,-0.053c-0.009,-0.013 -0.023,-0.019 -0.042,-0.019c-0.018,0 -0.032,0.006 -0.043,0.019c-0.01,0.012 -0.015,0.029 -0.015,0.052l0,0.42l-0.072,0l0,-0.419c0,-0.023 -0.005,-0.041 -0.016,-0.053c-0.01,-0.013 -0.024,-0.019 -0.043,-0.019c-0.019,0 -0.033,0.006 -0.042,0.019c-0.009,0.012 -0.014,0.029 -0.014,0.052l0,0.42l-0.083,0Z" style="fill:#089700;fill-rule:nonzero;"/></g><g transform="matrix(66.6667,0,0,66.6667,2063.91,671.165)"><path d="M0.258,-0.43l-0.012,-0.15l0,-0.15l0.097,0l0,0.15l-0.011,0.15l-0.074,-0Z" style="fill:#089700;fill-rule:nonzero;"/></g><g transform="matrix(66.6667,0,0,66.6667,2103.91,671.165)"><path d="M0.115,0.12l0,-0.089c0.043,-0.01 0.081,-0.029 0.112,-0.056c0.031,-0.028 0.055,-0.063 0.072,-0.105c0.017,-0.042 0.026,-0.089 0.026,-0.14l-0,-0.18c-0,-0.053 -0.009,-0.1 -0.026,-0.142c-0.017,-0.042 -0.042,-0.077 -0.073,-0.105c-0.031,-0.029 -0.068,-0.048 -0.111,-0.058l-0,-0.085c0.062,0.015 0.115,0.041 0.16,0.078c0.045,0.037 0.079,0.082 0.103,0.135c0.025,0.053 0.037,0.112 0.037,0.177l0,0.18c0,0.099 -0.026,0.183 -0.079,0.252c-0.053,0.069 -0.126,0.115 -0.221,0.138Z" style="fill:#666;fill-rule:nonzero;"/></g><g transform="matrix(66.6667,0,0,66.6667,1023.91,754.499)"><path d="M0.36,-0c-0.047,-0 -0.084,-0.013 -0.11,-0.038c-0.027,-0.025 -0.04,-0.061 -0.04,-0.107l0,-0.323l-0.155,-0l0,-0.082l0.155,-0l0,-0.155l0.09,0l0,0.155l0.22,-0l0,0.082l-0.22,-0l-0,0.323c-0,0.042 0.02,0.063 0.06,0.063l0.15,-0l0,0.082l-0.15,-0Z" style="fill:#5d93ff;fill-rule:nonzero;"/></g><g transform="matrix(66.6667,0,0,66.6667,1063.91,754.499)"><path d="M0.3,0.01c-0.025,-0 -0.045,-0.007 -0.061,-0.022c-0.014,-0.015 -0.022,-0.034 -0.022,-0.059c0,-0.026 0.008,-0.047 0.022,-0.062c0.016,-0.015 0.036,-0.023 0.061,-0.023c0.025,0 0.045,0.008 0.061,0.023c0.015,0.015 0.022,0.036 0.022,0.062c0,0.025 -0.008,0.044 -0.023,0.059c-0.015,0.015 -0.035,0.022 -0.06,0.022Z" style="fill:#666;fill-rule:nonzero;"/></g><g transform="matrix(66.6667,0,0,66.6667,1103.91,754.499)"><path d="M0.283,0.008c-0.057,-0 -0.102,-0.013 -0.135,-0.039c-0.033,-0.025 -0.053,-0.06 -0.058,-0.104l0.09,0c0.004,0.019 0.015,0.035 0.032,0.046c0.018,0.011 0.042,0.017 0.071,0.017l0.042,0c0.035,0 0.062,-0.007 0.079,-0.021c0.017,-0.015 0.026,-0.034 0.026,-0.058c-0,-0.045 -0.031,-0.073 -0.093,-0.083l-0.074,-0.012c-0.054,-0.009 -0.094,-0.026 -0.121,-0.05c-0.026,-0.025 -0.039,-0.06 -0.039,-0.107c-0,-0.049 0.016,-0.087 0.047,-0.114c0.031,-0.027 0.078,-0.041 0.141,-0.041l0.038,0c0.053,0 0.095,0.012 0.127,0.037c0.032,0.025 0.051,0.058 0.058,0.1l-0.09,0c-0.004,-0.017 -0.014,-0.031 -0.03,-0.041c-0.016,-0.011 -0.038,-0.016 -0.065,-0.016l-0.038,0c-0.034,0 -0.059,0.006 -0.075,0.019c-0.015,0.013 -0.023,0.032 -0.023,0.057c-0,0.023 0.007,0.039 0.02,0.05c0.013,0.011 0.034,0.018 0.063,0.023l0.074,0.012c0.059,0.009 0.102,0.027 0.129,0.052c0.027,0.025 0.041,0.062 0.041,0.11c-0,0.051 -0.016,0.091 -0.049,0.12c-0.032,0.029 -0.081,0.043 -0.146,0.043l-0.042,0Z" style="fill:#ff6000;fill-rule:nonzero;"/></g><g transform="matrix(66.6667,0,0,66.6667,1143.91,754.499)"><path d="M0.36,-0c-0.047,-0 -0.084,-0.013 -0.11,-0.038c-0.027,-0.025 -0.04,-0.061 -0.04,-0.107l0,-0.323l-0.155,-0l0,-0.082l0.155,-0l0,-0.155l0.09,0l0,0.155l0.22,-0l0,0.082l-0.22,-0l-0,0.323c-0,0.042 0.02,0.063 0.06,0.063l0.15,-0l0,0.082l-0.15,-0Z" style="fill:#ff6000;fill-rule:nonzero;"/></g><g transform="matrix(66.6667,0,0,66.6667,1183.91,754.499)"><path d="M0.3,0.01c-0.043,-0 -0.081,-0.009 -0.113,-0.026c-0.033,-0.017 -0.058,-0.042 -0.076,-0.074c-0.017,-0.031 -0.026,-0.068 -0.026,-0.11l0,-0.15c0,-0.043 0.009,-0.08 0.027,-0.111c0.017,-0.031 0.042,-0.056 0.075,-0.073c0.032,-0.017 0.07,-0.026 0.113,-0.026c0.043,-0 0.081,0.009 0.113,0.026c0.033,0.017 0.058,0.042 0.076,0.073c0.017,0.031 0.026,0.068 0.026,0.111l0,0.097l-0.342,-0l0,0.053c0,0.043 0.011,0.076 0.033,0.099c0.022,0.023 0.053,0.035 0.094,0.035c0.035,-0 0.063,-0.006 0.084,-0.019c0.021,-0.012 0.034,-0.03 0.039,-0.055l0.09,-0c-0.006,0.046 -0.029,0.082 -0.068,0.109c-0.039,0.027 -0.087,0.041 -0.145,0.041Zm-0.127,-0.331l0.254,-0l-0,-0.029c-0,-0.043 -0.011,-0.077 -0.033,-0.1c-0.021,-0.023 -0.053,-0.035 -0.094,-0.035c-0.041,0 -0.072,0.012 -0.094,0.035c-0.022,0.023 -0.033,0.057 -0.033,0.1l-0,0.029Z" style="fill:#ff6000;fill-rule:nonzero;"/></g><g transform="matrix(66.6667,0,0,66.6667,1223.91,754.499)"><path d="M0.092,0.18l0,-0.73l0.09,0l0,0.105l0.001,0c0.005,-0.036 0.02,-0.064 0.048,-0.084c0.027,-0.021 0.061,-0.031 0.102,-0.031c0.055,0 0.1,0.018 0.133,0.055c0.033,0.036 0.049,0.086 0.049,0.149l0,0.161c0,0.063 -0.017,0.113 -0.049,0.15c-0.034,0.037 -0.078,0.055 -0.133,0.055c-0.041,-0 -0.075,-0.01 -0.102,-0.031c-0.027,-0.021 -0.043,-0.049 -0.048,-0.084l-0.003,-0l0.002,0.125l0,0.16l-0.09,-0Zm0.211,-0.248c0.038,-0 0.068,-0.011 0.09,-0.034c0.021,-0.023 0.032,-0.055 0.032,-0.098l-0,-0.15c-0,-0.043 -0.011,-0.075 -0.033,-0.098c-0.021,-0.023 -0.051,-0.034 -0.089,-0.034c-0.037,0 -0.066,0.012 -0.088,0.035c-0.022,0.023 -0.033,0.056 -0.033,0.097l-0,0.15c-0,0.041 0.011,0.074 0.033,0.097c0.022,0.023 0.051,0.035 0.088,0.035Z" style="fill:#ff6000;fill-rule:nonzero;"/></g><g transform="matrix(66.6667,0,0,66.6667,1263.91,754.499)"><path d="M0.283,0.008c-0.057,-0 -0.102,-0.013 -0.135,-0.039c-0.033,-0.025 -0.053,-0.06 -0.058,-0.104l0.09,0c0.004,0.019 0.015,0.035 0.032,0.046c0.018,0.011 0.042,0.017 0.071,0.017l0.042,0c0.035,0 0.062,-0.007 0.079,-0.021c0.017,-0.015 0.026,-0.034 0.026,-0.058c-0,-0.045 -0.031,-0.073 -0.093,-0.083l-0.074,-0.012c-0.054,-0.009 -0.094,-0.026 -0.121,-0.05c-0.026,-0.025 -0.039,-0.06 -0.039,-0.107c-0,-0.049 0.016,-0.087 0.047,-0.114c0.031,-0.027 0.078,-0.041 0.141,-0.041l0.038,0c0.053,0 0.095,0.012 0.127,0.037c0.032,0.025 0.051,0.058 0.058,0.1l-0.09,0c-0.004,-0.017 -0.014,-0.031 -0.03,-0.041c-0.016,-0.011 -0.038,-0.016 -0.065,-0.016l-0.038,0c-0.034,0 -0.059,0.006 -0.075,0.019c-0.015,0.013 -0.023,0.032 -0.023,0.057c-0,0.023 0.007,0.039 0.02,0.05c0.013,0.011 0.034,0.018 0.063,0.023l0.074,0.012c0.059,0.009 0.102,0.027 0.129,0.052c0.027,0.025 0.041,0.062 0.041,0.11c-0,0.051 -0.016,0.091 -0.049,0.12c-0.032,0.029 -0.081,0.043 -0.146,0.043l-0.042,0Z" style="fill:#ff6000;fill-rule:nonzero;"/></g><g transform="matrix(66.6667,0,0,66.6667,1303.91,754.499)"><path d="M0.205,0.11l-0,-0.94l0.245,0l0,0.08l-0.155,0l-0,0.78l0.155,0l-0,0.08l-0.245,0Z" style="fill:#666;fill-rule:nonzero;"/></g><g transform="matrix(66.6667,0,0,66.6667,1343.91,754.499)"><path d="M0.09,-0l0,-0.082l0.198,0l-0,-0.573l-0.198,0.148l-0,-0.1l0.165,-0.123l0.123,0l0,0.648l0.162,-0l0,0.082l-0.45,-0Z" style="fill:#666;fill-rule:nonzero;"/></g><g transform="matrix(66.6667,0,0,66.6667,1383.91,754.499)"><path d="M0.15,0.11l0,-0.08l0.155,0l0,-0.78l-0.155,0l0,-0.08l0.245,0l0,0.94l-0.245,-0Z" style="fill:#666;fill-rule:nonzero;"/></g></g><g transform="matrix(1,0,0,1,-112.269,3.51239)"><path d="M1105.65,184.273c58.88,-1.066 99.97,-1.846 128.565,2.146c17.719,2.473 30.361,6.674 39.217,14.268c10.972,9.409 15.801,23.888 18.13,45.453c2.526,23.395 1.871,54.656 1.149,96.33c-0.059,3.449 2.692,6.298 6.141,6.357c3.449,0.06 6.298,-2.692 6.358,-6.141c0.883,-51.003 1.556,-86.711 -3.231,-111.616c-3.474,-18.071 -9.839,-30.807 -20.41,-39.872c-10.344,-8.871 -24.928,-14.27 -45.626,-17.159c-29.03,-4.053 -70.743,-3.346 -130.52,-2.264c-3.448,0.062 -6.198,2.913 -6.135,6.362c0.062,3.449 2.913,6.198 6.362,6.136Z" style="fill:#f00;"/></g><g transform="matrix(-1,-1.22298e-16,1.22298e-16,-1,2495.21,722.284)"><path d="M1307.91,332.622l33.667,53.376l-67.335,-0l33.668,-53.376Z" style="fill:#f00;"/></g></svg>